<svg width="27" height="35" viewBox="0 0 27 35" xmlns="http://www.w3.org/2000/svg"><desc>Created with Sketch.</desc><g fill="#57D685"><path d="M1.41 33.493h23.41V1.403H1.41v32.09zM26.23 17.48v16.6c-.008.554-.264.816-.81.816H.917c-.692 0-.918-.227-.918-.925V.93C0 .228.22 0 .913 0h24.41c.673 0 .902.23.902.91v16.57zm-13.64-.093c-2.268 0-4.537 0-6.805-.002-.576 0-.915-.433-.738-.925.097-.267.29-.42.57-.452.11-.012.223-.007.335-.007h13.275c.632 0 .963.248.956.7-.007.46-.33.69-.97.69H12.59m0 12c-2.268 0-4.537 0-6.805-.002-.576 0-.915-.433-.738-.925.097-.266.29-.42.57-.45.11-.013.223-.008.335-.008h13.275c.632 0 .963.245.956.7-.007.46-.33.69-.97.69H12.59m0-6.003c-2.268 0-4.537 0-6.805-.002-.576 0-.915-.433-.738-.925.097-.267.29-.42.57-.452.11-.01.223-.006.335-.006h13.275c.632 0 .963.245.956.7-.007.46-.33.69-.97.69H12.59"/><path d="M16.775 6.427c.298-.303.3-.79.003-1.09l-.11-.114c-.297-.3-.78-.297-1.08.008L10.965 9.93 9.492 7.93c-.253-.343-.728-.413-1.063-.156l-.13.096c-.336.255-.405.737-.15 1.08l2.17 2.936c.25.34.696.37.996.068L16.77 6.43z"/></g></svg>