<svg width="26" height="37" viewBox="0 0 26 37" xmlns="http://www.w3.org/2000/svg"><desc>Created with Sketch.</desc><path d="M12.7 34.935c.087-.128.127-.18.16-.24 3.19-5.526 6.392-11.046 9.56-16.585 1.248-2.18 1.647-4.553 1.262-7.023C22.732 5 17.13.887 11.067 1.783 3.363 2.923-.81 11.543 3.08 18.28c2.686 4.653 5.373 9.304 8.06 13.955l1.56 2.7M12.7 0c6.522.036 12.025 5.023 12.646 11.496.262 2.727-.29 5.277-1.655 7.646-3.2 5.565-6.42 11.124-9.63 16.685-.68 1.19-2 1.195-2.69.01C8.14 30.24 4.9 24.65 1.68 19.05c-4.31-7.485.112-17.154 8.58-18.758C11.06.14 11.888.095 12.7 0m-.035 8.12c-2.486 0-4.532 2.04-4.53 4.52 0 2.497 2.023 4.515 4.524 4.516 2.5 0 4.52-2.015 4.53-4.51 0-2.477-2.04-4.523-4.53-4.525m.01-1.59c3.37.01 6.13 2.76 6.12 6.12-.01 3.37-2.76 6.12-6.13 6.12-3.37.01-6.13-2.74-6.14-6.1-.01-3.38 2.75-6.14 6.15-6.14" fill="#FABC6C"/></svg>