<svg xmlns="http://www.w3.org/2000/svg" width="27" height="35" viewBox="0, 0, 27, 35"><g fill="#DC032F"><path d="M1.796 33.545h23.41V1.455H1.795v32.09zm24.82-16.013v16.6c-.008.554-.265.816-.81.816H1.303c-.693 0-.92-.227-.92-.925V.983C.386.28.606.052 1.3.052h24.41c.672 0 .9.23.9.91v16.57zM13.5 7.022c-2.267 0-4.536.003-6.806 0-.58 0-.92-.433-.74-.926.095-.267.29-.42.57-.45.11-.014.22-.01.334-.01h13.277c.633 0 .963.244.958.7-.007.46-.33.687-.97.687H13.5m-4.108 4.203c.91 0 1.818-.006 2.728.002.38.004.64.255.687.62.04.302-.16.627-.46.72-.104.034-.22.04-.33.04-1.77.003-3.536.003-5.303 0-.49 0-.81-.282-.8-.7.005-.418.318-.682.817-.683h2.666v.005zm-.03 6.968c-.92 0-1.84.007-2.76-.002-.38-.003-.64-.253-.688-.62-.04-.3.16-.625.46-.72.103-.033.22-.04.33-.04 1.77-.002 3.534-.003 5.303 0 .49 0 .807.28.802.698-.008.42-.32.684-.817.686-.88.006-1.76 0-2.637 0zm-.006 5.587c-.88 0-1.76.003-2.637 0-.497 0-.81-.272-.81-.69-.004-.42.312-.693.805-.694h5.304c.485.005.805.29.794.71-.01.41-.317.677-.793.678-.89.003-1.777 0-2.666 0"/><path d="M9.33 29.362c-.91 0-1.82.006-2.73-.003-.38-.004-.64-.255-.686-.62-.04-.3.16-.627.46-.72.103-.035.22-.04.33-.04 1.768-.003 3.536-.004 5.303 0 .49 0 .808.282.8.7-.006.42-.317.682-.817.683-.89.007-1.78 0-2.667 0z"/></g></svg>