<svg xmlns="http://www.w3.org/2000/svg" viewBox="0 0 35 35"><path d="M17.5 0A17.5 17.5 0 1 0 35 17.5 17.52 17.52 0 0 0 17.5 0zm0 33A15.54 15.54 0 1 1 33 17.5 15.55 15.55 0 0 1 17.5 33zM25 13.46A7.55 7.55 0 0 0 17.5 7c-.14 0-1.09.11-1.41.17a7.4 7.4 0 0 0-5.39 4.25 7.79 7.79 0 0 0-.45 1.31c0 .14-.21 1-.23 1.29v.76a7.41 7.41 0 0 0 1 3.54l3.74 6.48 1.77 3.06a1.23 1.23 0 0 0 1 .67 1.23 1.23 0 0 0 1.05-.68l1.53-2.66L24 18.41a7.47 7.47 0 0 0 1-3.61v-1.34zM14.89 12a3.62 3.62 0 1 1 2.57 6.17 3.62 3.62 0 0 1-3.62-3.61A3.59 3.59 0 0 1 14.89 12z"/></svg>