<svg width="38" height="37" viewBox="0 0 38 37" xmlns="http://www.w3.org/2000/svg"><desc>Created with Sketch.</desc><path d="M20.266 28.74c-.455-.085-.884-.215-1.317-.234-2.29-.1-4.53-.48-6.69-1.246-2.78-.986-5.25-2.465-7.268-4.63-.478-.51-.903-1.072-1.352-1.61-1.7 1.466-2.75 4.083-1.727 6.65.54 1.357 1.458 2.424 2.64 3.268.354.252.52.555.505.988-.02.614-.005 1.23-.005 1.844v.794c.76-.605 1.46-1.143 2.137-1.706.314-.26.626-.306 1.025-.24.98.166 1.967.37 2.956.394 2.77.064 5.3-.674 7.478-2.437.643-.522 1.2-1.126 1.613-1.836zm10.304 1.3v-.433c0-1.676.008-3.352-.006-5.027-.005-.454.14-.773.522-1.043 1.366-.965 2.552-2.118 3.47-3.52 1.983-3.032 2.412-6.247 1.024-9.628-.948-2.31-2.58-4.09-4.616-5.507-3.37-2.336-7.165-3.324-11.23-3.353-2.694-.02-5.312.457-7.813 1.477-2.75 1.126-5.12 2.76-6.87 5.2-1.47 2.05-2.193 4.336-1.98 6.864.24 2.826 1.538 5.15 3.567 7.08 2.96 2.82 6.576 4.225 10.59 4.706 2.692.323 5.352.125 7.97-.58.325-.087.61-.035.88.185.78.64 1.574 1.26 2.363 1.89l2.132 1.694zM3.533 32.36c.005-.213-.063-.344-.23-.477C1.713 30.617.566 29.05.157 27.036c-.52-2.57.272-4.777 2-6.694.217-.24.587-.44.637-.706.048-.26-.227-.578-.347-.876-1.735-4.318-1.047-8.3 1.77-11.932 2.17-2.802 5.08-4.606 8.43-5.67 5.803-1.84 11.49-1.516 16.97 1.188 2.757 1.36 5.035 3.303 6.605 5.978 2.484 4.235 2.177 9.138-.787 13.08-.873 1.162-1.885 2.185-3.052 3.052-.218.162-.306.33-.305.608.014 2.122.004 4.245.01 6.367.002.38-.076.698-.445.867-.353.16-.644.03-.927-.195-1.714-1.372-3.434-2.736-5.147-4.11-.168-.13-.31-.17-.52-.126-.88.17-1.767.315-2.648.482-.113.02-.264.097-.308.19-1.202 2.545-3.26 4.128-5.83 5.116-2.593 1-5.26 1.144-7.97.55-.213-.045-.357-.006-.518.124-.95.766-1.91 1.52-2.863 2.287-.29.233-.59.38-.953.203-.36-.175-.446-.496-.44-.87.01-.59.003-1.183.003-1.775 0-.602-.01-1.206.004-1.81zM19.69 12.098h-8.017c-.09 0-.18.004-.27 0-.46-.028-.79-.34-.796-.75-.007-.422.336-.746.813-.77.067-.002.134 0 .202 0h16.166c.08 0 .158-.003.236.002.467.033.774.34.77.766-.004.426-.314.723-.786.75-.09.006-.18.002-.27.002h-8.05m.035 4.512c2.695 0 5.39 0 8.084.004.166 0 .34.01.496.06.32.11.485.354.488.69.01.335-.152.582-.47.7-.14.05-.31.064-.46.064-5.434.003-10.87.003-16.302.002-.7 0-1.104-.473-.887-1.03.13-.332.4-.488.873-.488 1.75-.002 3.503 0 5.254 0h2.93" fill="#FA6C96"/></svg>