<svg width="27" height="35" viewBox="0 0 27 35" xmlns="http://www.w3.org/2000/svg"><desc>Created with Sketch.</desc><g fill="#238FF7"><path d="M1.41 33.493h23.41V1.403H1.41v32.09zM26.23 17.48v16.6c-.008.554-.264.816-.81.816H.917c-.692 0-.918-.227-.918-.925V.93C0 .228.22 0 .913 0h24.41c.673 0 .902.23.902.91v16.57zm-8.28-4.906v.377c0 3.468.01 6.93-.008 10.39-.003.67.064 1.31.315 1.937.136.335.232.687.346 1.03.22-.475.397-.936.522-1.41.098-.374.185-.764.186-1.147.02-3.597.01-7.193.01-10.79v-.38h-1.37zm2.76 5.62c0 2.005.002 4.012-.003 6.018 0 .173-.013.355-.066.518-.43 1.345-.88 2.686-1.32 4.027-.123.368-.34.544-.656.553-.312.01-.57-.152-.68-.478-.465-1.4-.923-2.802-1.376-4.205-.04-.124-.042-.265-.042-.398V12.062c0-.66.237-.897.887-.898h2.42c.59 0 .84.252.84.85.004 2.056 0 4.114 0 6.172zM13.115 6.97c-2.268 0-4.537.003-6.806 0-.58 0-.92-.433-.74-.926.094-.267.29-.42.57-.45.11-.014.22-.01.332-.01H19.75c.633 0 .963.244.957.7-.007.46-.33.687-.97.687h-6.623m-4.107 4.204c.91 0 1.818-.006 2.727.002.38.004.64.255.687.62.04.302-.16.627-.46.72-.102.034-.22.04-.33.04-1.767.003-3.535.003-5.302 0-.49 0-.808-.282-.8-.7.006-.418.318-.682.817-.683H9.01v.005zm-.03 6.968c-.92 0-1.84.007-2.76-.002-.38-.003-.64-.253-.688-.62-.04-.3.16-.625.46-.72.1-.033.22-.04.33-.04 1.77-.002 3.533-.003 5.3 0 .49 0 .81.28.803.698-.006.42-.318.684-.816.686-.88.006-1.758 0-2.636 0zM8.97 23.73H6.333c-.495-.003-.81-.274-.81-.69-.002-.42.314-.695.807-.696h5.303c.487.005.806.29.795.71-.01.41-.317.677-.793.678-.89.003-1.778 0-2.666 0"/><path d="M8.944 29.31c-.91 0-1.82.006-2.728-.003-.38-.003-.64-.254-.687-.62-.04-.3.16-.626.46-.72.102-.034.22-.04.33-.04 1.767-.002 3.535-.003 5.302 0 .49 0 .808.283.8.7-.006.42-.318.683-.817.684-.89.008-1.78 0-2.667 0z"/></g></svg>