<svg width="27" height="35" viewBox="0 0 27 35" xmlns="http://www.w3.org/2000/svg"><desc>Created with Sketch.</desc><g fill="#238FF7"><path d="M1.41 33.493h23.41V1.403H1.41v32.09zM26.23 17.48v16.6c-.008.554-.264.816-.81.816H.917c-.692 0-.918-.227-.918-.925V.93C0 .228.22 0 .91 0h24.41c.673 0 .902.23.902.91v16.57zm-8.28-4.906v.377c0 3.47.01 6.93-.008 10.39-.003.67.064 1.31.315 1.94.136.34.232.69.346 1.03.22-.47.397-.93.522-1.41.098-.37.185-.76.186-1.14.02-3.596.01-7.192.01-10.79v-.38h-1.37zm2.76 5.62c0 2.005.002 4.012-.003 6.018 0 .173-.013.355-.066.518-.43 1.345-.88 2.686-1.32 4.027-.12.368-.34.544-.65.553-.31.01-.57-.152-.68-.478-.46-1.4-.92-2.802-1.372-4.205-.04-.124-.042-.265-.042-.398V12.06c0-.66.238-.897.888-.898h2.42c.59 0 .84.252.84.85.005 2.056 0 4.114 0 6.172zM13.115 6.97c-2.268 0-4.537.003-6.806 0-.58 0-.92-.433-.74-.926.09-.267.29-.42.57-.45.11-.014.22-.01.33-.01h13.28c.63 0 .96.244.95.7-.01.46-.33.687-.97.687h-6.62M9 11.18c.91 0 1.818 0 2.727.007.38.003.64.254.69.62.04.3-.16.626-.46.72-.1.033-.22.04-.33.04-1.77.002-3.537.002-5.3 0-.49 0-.81-.283-.8-.7.002-.42.314-.683.813-.684H9.01v.005zm-.03 6.97c-.92 0-1.84.01-2.76 0-.38 0-.64-.25-.688-.62-.04-.3.16-.623.46-.72.1-.03.22-.04.33-.04h5.3c.49 0 .81.28.802.7-.01.42-.32.684-.82.686-.88.006-1.757 0-2.635 0zm-.005 5.58H6.332c-.495 0-.81-.27-.81-.69-.002-.42.314-.69.807-.692h5.3c.488.005.807.29.796.71-.01.41-.317.677-.793.678-.89.003-1.778 0-2.666 0"/><path d="M8.944 29.31c-.91 0-1.82.006-2.728-.003-.38-.003-.64-.254-.687-.62-.04-.3.16-.626.46-.72.1-.034.22-.04.33-.04 1.76-.002 3.53-.003 5.3 0 .49 0 .81.283.8.7-.01.42-.32.683-.82.684-.89.01-1.78 0-2.67 0z"/></g></svg>