<svg xmlns="http://www.w3.org/2000/svg" width="438.536" height="438.536" viewBox="0 0 438.536 438.536"><path d="M421.98 16.562C410.94 5.52 397.71 0 382.3 0H56.248C40.83 0 27.604 5.52 16.56 16.562 5.52 27.6 0 40.828 0 56.242V382.29c0 15.413 5.52 28.644 16.56 39.683 11.044 11.04 24.273 16.563 39.688 16.563h326.046c15.41 0 28.644-5.523 39.684-16.563 11.043-11.04 16.557-24.27 16.557-39.683V56.243c0-15.418-5.514-28.64-16.554-39.68zM157.463 158.025c17.224-16.652 37.924-24.982 62.097-24.982 24.36 0 45.152 8.33 62.38 24.982 17.228 16.655 25.837 36.785 25.837 60.386 0 23.6-8.61 43.73-25.837 60.38-17.228 16.66-38.014 24.99-62.38 24.99-24.173 0-44.87-8.337-62.098-24.99s-25.84-36.78-25.84-60.38 8.612-43.73 25.84-60.384zM388.865 370.59c0 4.944-1.718 9.082-5.14 12.415-3.434 3.33-7.52 4.996-12.283 4.996h-305.2c-4.948 0-9.09-1.664-12.42-4.994-3.332-3.326-4.997-7.47-4.997-12.416V185.574H89.08c-3.805 11.993-5.708 24.462-5.708 37.402 0 36.553 13.322 67.715 39.97 93.51 26.65 25.787 58.72 38.686 96.216 38.686 24.744 0 47.583-5.903 68.527-17.703 20.937-11.808 37.486-27.84 49.676-48.113 12.185-20.272 18.276-42.4 18.276-66.38 0-12.94-1.91-25.406-5.715-37.402h38.548V370.59h-.002zm0-254.964c0 5.52-1.903 10.184-5.716 13.99-3.807 3.81-8.468 5.71-13.99 5.71h-49.677c-5.517 0-10.185-1.902-13.99-5.71-3.806-3.806-5.708-8.47-5.708-13.99V68.522c0-5.33 1.902-9.945 5.708-13.848 3.806-3.9 8.474-5.854 13.99-5.854h49.676c5.522 0 10.184 1.952 13.99 5.854 3.81 3.903 5.714 8.518 5.714 13.848v47.104z"/></svg>