<svg viewBox="0 0 100 100" xmlns="http://www.w3.org/2000/svg" style="display:none"><symbol viewBox="0 0 8 8" id="icon-account-login"><title>account-login</title><path d="M3 0v1h4v5H3v1h5V0H3zm1 2v1H0v1h4v1l2-1.5L4 2z"/></symbol><symbol viewBox="0 0 8 8" id="icon-account-logout"><title>account-logout</title><path d="M3 0v1h4v5H3v1h5V0H3zM2 2L0 3.5 2 5V4h4V3H2V2z"/></symbol><symbol viewBox="0 0 8 8" id="icon-action-redo"><title>action-redo</title><path d="M3.5 1C1.57 1 0 2.57 0 4.5 0 3.12 1.12 2 2.5 2S5 3.12 5 4.5V5H4l2 2 2-2H7v-.5C7 2.57 5.43 1 3.5 1z"/></symbol><symbol viewBox="0 0 8 8" id="icon-action-undo"><title>action-undo</title><path d="M4.5 1C2.57 1 1 2.57 1 4.5V5H0l2 2 2-2H3v-.5C3 3.12 4.12 2 5.5 2S8 3.12 8 4.5C8 2.57 6.43 1 4.5 1z"/></symbol><symbol viewBox="0 0 35 35" id="icon-actions"><title>actions</title><path d="M17.5 35A17.5 17.5 0 1 1 35 17.5 17.52 17.52 0 0 1 17.5 35zm0-33.06A15.56 15.56 0 1 0 33.06 17.5 15.57 15.57 0 0 0 17.5 1.94zM16 22.48a1 1 0 0 1-.68-.28l-4.08-4a1 1 0 0 1 1.36-1.39l3.4 3.3 8-8.8a1 1 0 0 1 1.44 1.31l-8.69 9.55a1 1 0 0 1-.69.32z"/></symbol><symbol viewBox="0 0 8 8" id="icon-align-center"><title>align-center</title><path d="M0 0v1h8V0H0zm1 2v1h6V2H1zM0 4v1h8V4H0zm1 2v1h6V6H1z"/></symbol><symbol viewBox="0 0 8 8" id="icon-align-left"><title>align-left</title><path d="M0 0v1h8V0H0zm0 2v1h6V2H0zm0 2v1h8V4H0zm0 2v1h6V6H0z"/></symbol><symbol viewBox="0 0 8 8" id="icon-align-right"><title>align-right</title><path d="M0 0v1h8V0H0zm2 2v1h6V2H2zM0 4v1h8V4H0zm2 2v1h6V6H2z"/></symbol><symbol viewBox="0 0 8 8" id="icon-aperture"><title>aperture</title><path d="M4 0c-.69 0-1.34.19-1.91.5l3.22 2.34.75-2.25C5.46.23 4.75 0 4 0zM1.25 1.13C.49 1.86 0 2.87 0 4.01c0 .25.02.48.06.72l3.09-2.22-1.91-1.38zm5.63.13L5.66 5.01h2.19c.08-.32.16-.65.16-1 0-1.07-.44-2.03-1.13-2.75zM2.16 4.48L.41 5.73c.55 1.13 1.6 1.99 2.88 2.22L2.16 4.48zm1.56 1.53l.63 1.97c1.33-.12 2.46-.88 3.09-1.97H3.72z"/></symbol><symbol viewBox="0 0 8 8" id="icon-arrow-bottom"><title>arrow-bottom</title><path d="M3 0v5H1l2.53 3L6 5H4V0H3z"/></symbol><symbol viewBox="0 0 8 8" id="icon-arrow-circle-bottom"><title>arrow-circle-bottom</title><path d="M4 0C1.79 0 0 1.79 0 4s1.79 4 4 4 4-1.79 4-4-1.79-4-4-4zM3 1h2v3h2L4 7 1 4h2V1z"/></symbol><symbol viewBox="0 0 8 8" id="icon-arrow-circle-left"><title>arrow-circle-left</title><path d="M4 0C1.79 0 0 1.79 0 4s1.79 4 4 4 4-1.79 4-4-1.79-4-4-4zm0 1v2h3v2H4v2L1 4l3-3z"/></symbol><symbol viewBox="0 0 8 8" id="icon-arrow-circle-right"><title>arrow-circle-right</title><path d="M4 0C1.79 0 0 1.79 0 4s1.79 4 4 4 4-1.79 4-4-1.79-4-4-4zm0 1l3 3-3 3V5H1V3h3V1z"/></symbol><symbol viewBox="0 0 8 8" id="icon-arrow-circle-top"><title>arrow-circle-top</title><path d="M4 0C1.79 0 0 1.79 0 4s1.79 4 4 4 4-1.79 4-4-1.79-4-4-4zm0 1l3 3H5v3H3V4H1l3-3z"/></symbol><symbol viewBox="0 0 8 8" id="icon-arrow-left"><title>arrow-left</title><path d="M3 1L0 3.53 3 6V4h5V3H3V1z"/></symbol><symbol viewBox="0 0 8 8" id="icon-arrow-right"><title>arrow-right</title><path d="M5 1v2H0v1h5v2l3-2.53L5 1z"/></symbol><symbol viewBox="0 0 8 8" id="icon-arrow-thick-bottom"><title>arrow-thick-bottom</title><path d="M3 0v5H1l3.03 3L7 5H5V0H3z"/></symbol><symbol viewBox="0 0 8 8" id="icon-arrow-thick-left"><title>arrow-thick-left</title><path d="M3 1L0 4.03 3 7V5h5V3H3V1z"/></symbol><symbol viewBox="0 0 8 8" id="icon-arrow-thick-right"><title>arrow-thick-right</title><path d="M5 1v2H0v2h5v2l3-3.03L5 1z"/></symbol><symbol viewBox="0 0 8 8" id="icon-arrow-thick-top"><title>arrow-thick-top</title><path d="M3.97 0L1 3h2v5h2V3h2L3.97 0z"/></symbol><symbol viewBox="0 0 8 8" id="icon-arrow-top"><title>arrow-top</title><path d="M3.47 0L1 3h2v5h1V3h2L3.47 0z"/></symbol><symbol viewBox="0 0 8 8" id="icon-audio-spectrum"><title>audio-spectrum</title><path d="M4 0v8h1V0H4zM2 1v6h1V1H2zm4 1v4h1V2H6zM0 3v2h1V3H0z"/></symbol><symbol viewBox="0 0 8 8" id="icon-audio"><title>audio</title><path d="M1.16 1C.44 1.72 0 2.71 0 3.81s.43 2.12 1.16 2.84l.72-.72C1.34 5.39 1 4.64 1 3.8c0-.83.33-1.55.88-2.09L1.16.99zm5.69-1l-.72.72c.54.54.88 1.26.88 2.09 0 .83-.33 1.58-.88 2.13l.72.72c.72-.72 1.16-1.74 1.16-2.84 0-1.1-.43-2.09-1.16-2.81zM2.6 1.41c-.36.36-.59.86-.59 1.41 0 .55.23 1.08.59 1.44l.69-.72c-.18-.18-.28-.44-.28-.72 0-.28.1-.5.28-.69l-.69-.72zm2.81 0l-.69.72c.18.18.28.41.28.69 0 .28-.1.54-.28.72l.69.72c.36-.36.59-.89.59-1.44 0-.55-.23-1.05-.59-1.41z"/></symbol><symbol viewBox="0 0 8 8" id="icon-badge"><title>badge</title><path d="M4 0C2.9 0 2 .9 2 2s.9 2 2 2 2-.9 2-2-.9-2-2-2zM1 4.81V8l1-1 1 1V4.81c-.31.11-.65.19-1 .19s-.69-.08-1-.19z"/></symbol><symbol viewBox="0 0 8 8" id="icon-ban"><title>ban</title><path d="M4 0C1.8 0 0 1.8 0 4s1.8 4 4 4 4-1.8 4-4-1.8-4-4-4zm0 1c.66 0 1.26.21 1.75.56L1.56 5.75C1.21 5.26 1 4.66 1 4c0-1.66 1.34-3 3-3zm2.44 1.25C6.79 2.74 7 3.34 7 4c0 1.66-1.34 3-3 3-.66 0-1.26-.21-1.75-.56l4.19-4.19z"/></symbol><symbol viewBox="0 0 8 8" id="icon-bar-chart"><title>bar-chart</title><path d="M0 0v7h8V6H1V0H0zm5 0v5h2V0H5zM2 2v3h2V2H2z"/></symbol><symbol viewBox="0 0 8 8" id="icon-basket"><title>basket</title><path d="M3.97 0c-.13.01-.26.08-.34.19L1.29 3H.01v1h1v3.66c0 .18.16.34.34.34h5.31c.18 0 .34-.16.34-.34V4h1V3H6.72C6.45 2.67 4.33.14 4.31.12c-.11-.09-.22-.14-.34-.13zM4 1.28L5.44 3H2.56L4 1.28zM2.5 5c.28 0 .5.22.5.5v1c0 .28-.22.5-.5.5S2 6.78 2 6.5v-1c0-.28.22-.5.5-.5zm3 0c.28 0 .5.22.5.5v1c0 .28-.22.5-.5.5S5 6.78 5 6.5v-1c0-.28.22-.5.5-.5z"/></symbol><symbol viewBox="0 0 8 8" id="icon-battery-empty"><title>battery-empty</title><path d="M.09 1C.03 1 0 1.04 0 1.09V6.9c0 .05.04.09.09.09H6.9c.05 0 .09-.04.09-.09V4.99h1v-2h-1V1.08c0-.06-.04-.09-.09-.09H.09zM1 0h5v4H1V1z"/></symbol><symbol viewBox="0 0 8 8" id="icon-battery-full"><title>battery-full</title><path d="M.09 1C.03 1 0 1.04 0 1.09V6.9c0 .05.04.09.09.09H6.9c.05 0 .09-.04.09-.09V4.99h1v-2h-1V1.08c0-.06-.04-.09-.09-.09H.09z"/></symbol><symbol viewBox="0 0 8 8" id="icon-beaker"><title>beaker</title><path d="M1.34 0a.5.5 0 0 0 .16 1H2v1.41C1.91 2.58.8 4.72.34 5.5.18 5.76 0 6.11 0 6.56c0 .39.15.77.41 1.03S1.05 8 1.44 8h5.13c.38 0 .74-.16 1-.41h.03c.26-.26.41-.64.41-1.03 0-.45-.19-.8-.34-1.06-.46-.78-1.57-2.92-1.66-3.09V1h.5a.5.5 0 1 0 0-1h-5a.5.5 0 0 0-.09 0 .5.5 0 0 0-.06 0zM3 1h2v1.63l.06.09S5.69 3.95 6.25 5h-4.5c.56-1.05 1.19-2.28 1.19-2.28L3 2.63V1z"/></symbol><symbol viewBox="0 0 8 8" id="icon-bell"><title>bell</title><path d="M4 0C2.9 0 2 .9 2 2 2 3.04 1.48 3.98.66 4.66.25 5 0 5.48 0 6h8c0-.52-.24-1-.66-1.34C6.52 3.98 6 3.04 6 2c0-1.1-.89-2-2-2zM3 7c0 .55.45 1 1 1s1-.45 1-1H3z"/></symbol><symbol viewBox="0 0 8 8" id="icon-bluetooth"><title>bluetooth</title><path d="M2.5 0v2.5l-.75-.75L1 2.5 2.5 4 1 5.5l.75.75.75-.75V8H3l3.5-2.5-2.25-1.53L6.5 2.5 3 0h-.5zm0 1.5l1.5 1-1.5 1v-2zm0 3l1.5 1-1.5 1v-2z"/></symbol><symbol viewBox="0 0 8 8" id="icon-bold"><title>bold</title><path d="M0 0v1c.55 0 1 .45 1 1v4c0 .55-.45 1-1 1v1h5.5C6.88 8 8 6.88 8 5.5c0-1-.59-1.85-1.44-2.25C6.83 2.91 7 2.47 7 2c0-1.1-.89-2-2-2H0zm3 1h1c.55 0 1 .45 1 1s-.45 1-1 1H3V1zm0 3h1.5C5.33 4 6 4.67 6 5.5S5.33 7 4.5 7H3V4z"/></symbol><symbol viewBox="0 0 8 8" id="icon-bolt"><title>bolt</title><path d="M4 0L1 5h2v3l3-5H4V0z"/></symbol><symbol viewBox="0 0 8 8" id="icon-book"><title>book</title><path d="M1 0C.93 0 .87.01.81.03.42.11.11.42.03.81 0 .87 0 .93 0 1v5.5C0 7.33.67 8 1.5 8H7V7H1.5c-.28 0-.5-.22-.5-.5s.22-.5.5-.5H7V.5c0-.28-.22-.5-.5-.5H6v3L5 2 4 3V0H1z"/></symbol><symbol viewBox="0 0 8 8" id="icon-bookmark"><title>bookmark</title><path d="M2 0v8l2-2 2 2V0H2z"/></symbol><symbol viewBox="0 0 8 8" id="icon-box"><title>box</title><path d="M0 0v1h8V0H0zm0 2v5.91c0 .05.04.09.09.09H7.9c.05 0 .09-.04.09-.09V2H5.02v1.03H2.99V2h-3z"/></symbol><symbol viewBox="0 0 8 8" id="icon-briefcase"><title>briefcase</title><path d="M3 0c-.55 0-1 .45-1 1v1H.09C.03 2 0 2.04 0 2.09V4.5c0 .28.22.5.5.5h7c.28 0 .5-.22.5-.5V2.09C8 2.03 7.96 2 7.91 2H6V1c0-.55-.45-1-1-1H3zm0 1h2v1H3V1zM0 5.91v2c0 .05.04.09.09.09H7.9c.05 0 .09-.04.09-.09v-2c-.16.06-.32.09-.5.09h-7c-.18 0-.34-.04-.5-.09z"/></symbol><symbol viewBox="0 0 8 8" id="icon-british-pound"><title>british-pound</title><path d="M4 0c-.62 0-1.16.26-1.5.69-.34.43-.5.99-.5 1.56 0 .69.16 1.25.25 1.75H1v1h1.22c-.11.45-.37.96-1.06 1.66L1 6.79v1.22h6v-1H2.09c.64-.73.98-1.4 1.13-2H5v-1H3.28C3.2 3.33 3 2.77 3 2.26c0-.39.11-.73.28-.94.17-.21.37-.31.72-.31.39 0 .61.11.75.25s.25.36.25.75h1c0-.58-.17-1.1-.53-1.47C5.1.17 4.58.01 4 .01z"/></symbol><symbol viewBox="0 0 8 8" id="icon-browser"><title>browser</title><path d="M.34 0A.5.5 0 0 0 0 .5v7a.5.5 0 0 0 .5.5h7a.5.5 0 0 0 .5-.5v-7a.5.5 0 0 0-.5-.5h-7a.5.5 0 0 0-.09 0 .5.5 0 0 0-.06 0zM1.5 1c.28 0 .5.22.5.5s-.22.5-.5.5-.5-.22-.5-.5.22-.5.5-.5zm2 0h3c.28 0 .5.22.5.5s-.22.5-.5.5h-3c-.28 0-.5-.22-.5-.5s.22-.5.5-.5zM1 3h6v4H1V3z"/></symbol><symbol viewBox="0 0 8 8" id="icon-brush"><title>brush</title><path d="M7.44.03c-.03 0-.04.02-.06.03L3.63 2.72c-.04.03-.1.11-.13.16l-.13.25c.72.23 1.27.78 1.5 1.5l.25-.13c.05-.03.12-.08.16-.13L7.94.62c.03-.05.04-.09 0-.13L7.5.05C7.48.03 7.46.02 7.44.02zM2.66 4c-.74 0-1.31.61-1.31 1.34 0 .99-.55 1.85-1.34 2.31.39.22.86.34 1.34.34 1.47 0 2.66-1.18 2.66-2.66 0-.74-.61-1.34-1.34-1.34z"/></symbol><symbol viewBox="0 0 8 8" id="icon-bug"><title>bug</title><path d="M3.5 0C2.31 0 1.52 1.69 2.31 2.5c-.09.07-.2.14-.28.22L.72 2.06A.5.5 0 0 0 .38 2a.5.5 0 0 0-.09.94l1.16.56c-.09.16-.19.33-.25.5H.51a.5.5 0 0 0-.09 0 .5.5 0 1 0 .09 1h.5c0 .23.02.45.06.66l-.78.41a.5.5 0 1 0 .44.88l.66-.34c.25.46.62.85 1.03 1.09.35-.19.59-.44.59-.72V5.54a.5.5 0 0 0 0-.09v-.81a.5.5 0 0 0 0-.22c.05-.23.26-.41.5-.41.28 0 .5.22.5.5v.88a.5.5 0 0 0 0 .09v.06a.5.5 0 0 0 0 .09v1.34c0 .27.24.53.59.72.41-.25.79-.63 1.03-1.09l.66.34a.5.5 0 1 0 .44-.88l-.78-.41c.04-.21.06-.43.06-.66h.5a.5.5 0 1 0 0-1h-.69c-.06-.17-.16-.34-.25-.5l1.16-.56a.5.5 0 0 0-.31-.94.5.5 0 0 0-.13.06l-1.31.66c-.09-.08-.19-.15-.28-.22.78-.83 0-2.5-1.19-2.5z"/></symbol><symbol viewBox="0 0 8 8" id="icon-bullhorn"><title>bullhorn</title><path d="M6 0v6c.03.01.07 0 .09 0h.81c.05 0 .09-.04.09-.09V.1c0-.06-.04-.09-.09-.09h-.91zM5 .5L2.09 1.97c-.05.02-.13.03-.19.03H.09C.03 2 0 2.04 0 2.09V3.9c0 .06.04.09.09.09H1l1.03 2.72c.11.25.44.36.69.25.25-.11.36-.44.25-.69l-.75-1.78c.03-.14.13-.22.28-.22v-.03L5 5.49v-5z"/></symbol><symbol viewBox="0 0 8 8" id="icon-calculator"><title>calculator</title><path d="M.09 0C.03 0 0 .04 0 .09V7.9c0 .05.04.09.09.09H6.9c.05 0 .09-.04.09-.09V.09C6.99.03 6.95 0 6.9 0H.09zM1 1h5v2H1V1zm0 3h1v1H1V4zm2 0h1v1H3V4zm2 0h1v3H5V4zM1 6h1v1H1V6zm2 0h1v1H3V6z"/></symbol><symbol viewBox="0 0 8 8" id="icon-calendar"><title>calendar</title><path d="M0 0v2h7V0H0zm0 3v4.91c0 .05.04.09.09.09H6.9c.05 0 .09-.04.09-.09V3h-7zm1 1h1v1H1V4zm2 0h1v1H3V4zm2 0h1v1H5V4zM1 6h1v1H1V6zm2 0h1v1H3V6z"/></symbol><symbol viewBox="0 0 8 8" id="icon-camera-slr"><title>camera-slr</title><path d="M4.09 0c-.05 0-.1.04-.13.09L3.02 1.9c-.02.05-.07.09-.13.09H1.48c-.83 0-1.5.67-1.5 1.5V7.9c0 .05.04.09.09.09h7.81c.05 0 .09-.04.09-.09V2.09c0-.06-.04-.09-.09-.09h-.81c-.05 0-.1-.04-.13-.09L6 .1C5.97.05 5.93.01 5.87.01H4.06zM1.5 3c.28 0 .5.22.5.5s-.22.5-.5.5-.5-.22-.5-.5.22-.5.5-.5zM5 3c1.1 0 2 .9 2 2s-.9 2-2 2-2-.9-2-2 .9-2 2-2zm0 1c-.55 0-1 .45-1 1s.45 1 1 1 1-.45 1-1-.45-1-1-1z"/></symbol><symbol viewBox="0 0 8 8" id="icon-caret-bottom"><title>caret-bottom</title><path d="M0 2l4 4 4-4H0z"/></symbol><symbol viewBox="0 0 8 8" id="icon-caret-left"><title>caret-left</title><path d="M6 0L2 4l4 4V0z"/></symbol><symbol viewBox="0 0 8 8" id="icon-caret-right"><title>caret-right</title><path d="M2 0v8l4-4-4-4z"/></symbol><symbol viewBox="0 0 8 8" id="icon-caret-top"><title>caret-top</title><path d="M4 2L0 6h8L4 2z"/></symbol><symbol viewBox="0 0 8 8" id="icon-cart"><title>cart</title><path d="M.34 0A.5.5 0 0 0 .5 1H2l.09.25.41 1.25.41 1.25c.04.13.21.25.34.25h3.5c.14 0 .3-.12.34-.25l.81-2.5c.04-.13-.02-.25-.16-.25H3.3L2.92.28A.5.5 0 0 0 2.48 0h-2a.5.5 0 0 0-.09 0 .5.5 0 0 0-.06 0zM3.5 5c-.28 0-.5.22-.5.5s.22.5.5.5.5-.22.5-.5-.22-.5-.5-.5zm3 0c-.28 0-.5.22-.5.5s.22.5.5.5.5-.22.5-.5-.22-.5-.5-.5z" transform="translate(0 1)"/></symbol><symbol viewBox="0 0 8 8" id="icon-chat"><title>chat</title><path d="M0 0v5l1-1h1V1h3V0H0zm3 2v4h4l1 1V2H3z"/></symbol><symbol viewBox="0 0 8 8" id="icon-check"><title>check</title><path d="M6.41 1l-.69.72L2.94 4.5l-.81-.78L1.41 3 0 4.41l.72.72 1.5 1.5.69.72.72-.72 3.5-3.5.72-.72L6.41 1z"/></symbol><symbol viewBox="0 0 8 8" id="icon-chevron-bottom"><title>chevron-bottom</title><path d="M1.5 1L0 2.5l4 4 4-4L6.5 1 4 3.5 1.5 1z"/></symbol><symbol viewBox="0 0 8 8" id="icon-chevron-left"><title>chevron-left</title><path d="M5 0L1 4l4 4 1.5-1.5L4 4l2.5-2.5L5 0z"/></symbol><symbol viewBox="0 0 8 8" id="icon-chevron-right"><title>chevron-right</title><path d="M2.5 0L1 1.5 3.5 4 1 6.5 2.5 8l4-4-4-4z"/></symbol><symbol viewBox="0 0 8 8" id="icon-chevron-top"><title>chevron-top</title><path d="M4 1L0 5l1.5 1.5L4 4l2.5 2.5L8 5 4 1z"/></symbol><symbol viewBox="0 0 8 8" id="icon-circle-check"><title>circle-check</title><path d="M4 0C1.79 0 0 1.79 0 4s1.79 4 4 4 4-1.79 4-4-1.79-4-4-4zm2 1.78l.72.72L3.5 5.72 1.78 4l.72-.72 1 1L6 1.78z"/></symbol><symbol viewBox="0 0 8 8" id="icon-circle-x"><title>circle-x</title><path d="M4 0C1.79 0 0 1.79 0 4s1.79 4 4 4 4-1.79 4-4-1.79-4-4-4zM2.5 1.78L4 3.28l1.5-1.5.72.72L4.72 4l1.5 1.5-.72.72L4 4.72l-1.5 1.5-.72-.72L3.28 4l-1.5-1.5.72-.72z"/></symbol><symbol viewBox="0 0 8 8" id="icon-clipboard"><title>clipboard</title><path d="M3.5 0c-.28 0-.5.22-.5.5V1h-.75c-.14 0-.25.11-.25.25V2h3v-.75C5 1.11 4.89 1 4.75 1H4V.5c0-.28-.22-.5-.5-.5zM.25 1C.11 1 0 1.11 0 1.25v6.5c0 .14.11.25.25.25h6.5c.14 0 .25-.11.25-.25v-6.5C7 1.11 6.89 1 6.75 1H6v2H1V1H.25z"/></symbol><symbol viewBox="0 0 8 8" id="icon-clock"><title>clock</title><path d="M4 0C1.8 0 0 1.8 0 4s1.8 4 4 4 4-1.8 4-4-1.8-4-4-4zm0 1c1.66 0 3 1.34 3 3S5.66 7 4 7 1 5.66 1 4s1.34-3 3-3zm-.5 1v2.22l.16.13.5.5.34.38.72-.72-.38-.34-.34-.34V2.02h-1z"/></symbol><symbol viewBox="0 0 8 8" id="icon-cloud-download"><title>cloud-download</title><path d="M4.5 0C3.29 0 2.23.86 2 2 .9 2 0 2.9 0 4c0 .37.11.71.28 1H3v-.5C3 3.67 3.67 3 4.5 3S6 3.67 6 4.5V5h1.91c.06-.16.09-.32.09-.5 0-.65-.42-1.29-1-1.5v-.5C7 1.12 5.88 0 4.5 0zm-.16 4a.5.5 0 0 0-.34.5V6H2.5l2 2 2-2H5V4.5a.5.5 0 0 0-.59-.5.5.5 0 0 0-.06 0z"/></symbol><symbol viewBox="0 0 8 8" id="icon-cloud-upload"><title>cloud-upload</title><path d="M4.5 0C3.29 0 2.23.86 2 2 .9 2 0 2.9 0 4c0 .37.11.71.28 1H2.5l2-2 2 2h1.41c.06-.16.09-.32.09-.5 0-.65-.42-1.29-1-1.5v-.5C7 1.12 5.88 0 4.5 0zm0 4.5L2 7h2v.5a.5.5 0 1 0 1 0V7h2L4.5 4.5z"/></symbol><symbol viewBox="0 0 8 8" id="icon-cloud"><title>cloud</title><path d="M4.5 1C3.29 1 2.23 1.86 2 3 .9 3 0 3.9 0 5s.9 2 2 2h4.5C7.33 7 8 6.33 8 5.5c0-.65-.42-1.29-1-1.5v-.5C7 2.12 5.88 1 4.5 1z"/></symbol><symbol viewBox="0 0 8 8" id="icon-cloudy"><title>cloudy</title><path d="M2.5 0C1.12 0 0 1.12 0 2.5c0 .39.09.74.25 1.06.3-.21.64-.37 1-.47C1.8 1.84 3.07 1 4.5 1c-.46-.6-1.18-1-2-1zm2 2C3.29 2 2.23 2.86 2 4 .9 4 0 4.9 0 6s.9 2 2 2h4.5C7.33 8 8 7.33 8 6.5c0-.65-.42-1.29-1-1.5v-.5C7 3.12 5.88 2 4.5 2z"/></symbol><symbol viewBox="0 0 8 8" id="icon-code"><title>code</title><path d="M5 1L2 7h1l3-6H5zM1 0L0 3l1 2h1L1 3l1-2H1zm5 0l1 2-1 2h1l1-2-1-2H6z"/></symbol><symbol viewBox="0 0 8 8" id="icon-cog"><title>cog</title><path d="M3.5 0L3 1.19c-.1.03-.19.08-.28.13L1.53.82l-.72.72.5 1.19c-.05.1-.09.18-.13.28l-1.19.5v1l1.19.5c.04.1.08.18.13.28l-.5 1.19.72.72 1.19-.5c.09.04.18.09.28.13l.5 1.19h1L5 6.83c.09-.04.19-.08.28-.13l1.19.5.72-.72-.5-1.19c.04-.09.09-.19.13-.28l1.19-.5v-1l-1.19-.5c-.03-.09-.08-.19-.13-.28l.5-1.19-.72-.72-1.19.5c-.09-.04-.19-.09-.28-.13L4.5 0h-1zM4 2.5c.83 0 1.5.67 1.5 1.5S4.83 5.5 4 5.5 2.5 4.83 2.5 4 3.17 2.5 4 2.5z"/></symbol><symbol viewBox="0 0 8 8" id="icon-collapse-down"><title>collapse-down</title><path d="M0 0v2h8V0H0zm2 3l2 2 2-2H2zM0 7v1h8V7H0z"/></symbol><symbol viewBox="0 0 8 8" id="icon-collapse-left"><title>collapse-left</title><path d="M0 0v8h1V0H0zm6 0v8h2V0H6zM5 2L3 4l2 2V2z"/></symbol><symbol viewBox="0 0 8 8" id="icon-collapse-right"><title>collapse-right</title><path d="M0 0v8h2V0H0zm7 0v8h1V0H7zM3 2v4l2-2-2-2z"/></symbol><symbol viewBox="0 0 8 8" id="icon-collapse-up"><title>collapse-up</title><path d="M0 0v1h8V0H0zm4 3L2 5h4L4 3zM0 6v2h8V6H0z"/></symbol><symbol viewBox="0 0 8 8" id="icon-command"><title>command</title><path d="M1.5 0C.67 0 0 .67 0 1.5S.67 3 1.5 3H2v1h-.5C.67 4 0 4.67 0 5.5S.67 7 1.5 7 3 6.33 3 5.5V5h1v.5C4 6.33 4.67 7 5.5 7S7 6.33 7 5.5 6.33 4 5.5 4H5V3h.5C6.33 3 7 2.33 7 1.5S6.33 0 5.5 0 4 .67 4 1.5V2H3v-.5C3 .67 2.33 0 1.5 0zm0 1c.28 0 .5.22.5.5V2h-.5c-.28 0-.5-.22-.5-.5s.22-.5.5-.5zm4 0c.28 0 .5.22.5.5s-.22.5-.5.5H5v-.5c0-.28.22-.5.5-.5zM3 3h1v1H3V3zM1.5 5H2v.5c0 .28-.22.5-.5.5S1 5.78 1 5.5s.22-.5.5-.5zM5 5h.5c.28 0 .5.22.5.5s-.22.5-.5.5-.5-.22-.5-.5V5z"/></symbol><symbol viewBox="0 0 8 8" id="icon-comment-square"><title>comment-square</title><path d="M.09 0C.03 0 0 .04 0 .09V5.9c0 .05.04.09.09.09H6l2 2V.08c0-.06-.04-.09-.09-.09H.1z"/></symbol><symbol viewBox="0 0 8 8" id="icon-compass"><title>compass</title><path d="M4 0C1.8 0 0 1.8 0 4s1.8 4 4 4 4-1.8 4-4-1.8-4-4-4zm0 1c1.66 0 3 1.34 3 3S5.66 7 4 7 1 5.66 1 4s1.34-3 3-3zm2 1L3 3 2 6l3-1 1-3zM4 3.5c.28 0 .5.22.5.5s-.22.5-.5.5-.5-.22-.5-.5.22-.5.5-.5z"/></symbol><symbol viewBox="0 0 8 8" id="icon-contrast"><title>contrast</title><path d="M4 0C1.8 0 0 1.8 0 4s1.8 4 4 4 4-1.8 4-4-1.8-4-4-4zm0 1c1.66 0 3 1.34 3 3S5.66 7 4 7V1z"/></symbol><symbol viewBox="0 0 8 8" id="icon-copywriting"><title>copywriting</title><path d="M0 0v1h8V0H0zm0 2v1h5V2H0zm0 3v1h8V5H0zm0 2v1h6V7H0zm7.5 0c-.28 0-.5.22-.5.5s.22.5.5.5.5-.22.5-.5-.22-.5-.5-.5z"/></symbol><symbol viewBox="0 0 8 8" id="icon-credit-card"><title>credit-card</title><path d="M.25 1C.11 1 0 1.11 0 1.25V2h8v-.75C8 1.11 7.89 1 7.75 1H.25zM0 1v3.75c0 .14.11.25.25.25h7.5c.14 0 .25-.11.25-.25V2H0zm1 2h1v1H1zm2 0h1v1H3z"/></symbol><symbol viewBox="0 0 8 8" id="icon-crop"><title>crop</title><path d="M1 0v1H0v1h1v5h5v1h1V7h1V6H7V1.5l1-1-.5-.5-1 1H2V0H1zm1 2h3.5L2 5.5V2zm4 .5V6H2.5L6 2.5z"/></symbol><symbol viewBox="0 0 8 8" id="icon-dashboard"><title>dashboard</title><path d="M4 0C1.8 0 0 1.8 0 4s1.8 4 4 4 4-1.8 4-4-1.8-4-4-4zm0 1c1.66 0 3 1.34 3 3S5.66 7 4 7 1 5.66 1 4s1.34-3 3-3zm0 1c-.28 0-.5.22-.5.5s.22.5.5.5.5-.22.5-.5S4.28 2 4 2zM2.34 3a.5.5 0 0 0-.19.84l.91.91C3.04 4.83 3 4.91 3 5c0 .55.45 1 1 1s1-.45 1-1-.45-1-1-1c-.09 0-.17.04-.25.06l-.91-.91a.5.5 0 0 0-.44-.16.5.5 0 0 0-.06 0zM5.5 3c-.28 0-.5.22-.5.5s.22.5.5.5.5-.22.5-.5-.22-.5-.5-.5z"/></symbol><symbol viewBox="0 0 8 8" id="icon-data-transfer-download"><title>data-transfer-download</title><path d="M3 0v3H1l3 3 3-3H5V0H3zM0 7v1h8V7H0z"/></symbol><symbol viewBox="0 0 8 8" id="icon-data-transfer-upload"><title>data-transfer-upload</title><path d="M0 0v1h8V0H0zm4 2L1 5h2v3h2V5h2L4 2z"/></symbol><symbol viewBox="0 0 35 35" id="icon-debates"><title>debates</title><path d="M17.5 35A17.5 17.5 0 1 1 35 17.5 17.52 17.52 0 0 1 17.5 35zm0-33.06A15.56 15.56 0 1 0 33.06 17.5 15.57 15.57 0 0 0 17.5 1.94zm6.44 24.29a1 1 0 0 1-.34-.06l-3.78-1.42a10.75 10.75 0 0 1-2.32.25c-4.95 0-9-3.36-9-7.5s4-7.5 9-7.5 9 3.36 9 7.5a6.75 6.75 0 0 1-1.88 4.6l.32 3.06a1 1 0 0 1-1 1.07zm-4.06-3.47a1 1 0 0 1 .34.06l2.59 1-.2-2a1 1 0 0 1 .3-.8 4.91 4.91 0 0 0 1.62-3.54c0-3.06-3.15-5.55-7-5.55s-7 2.49-7 5.55 3.15 5.55 7 5.55a8.74 8.74 0 0 0 2.14-.26 1 1 0 0 1 .21-.01z"/></symbol><symbol viewBox="0 0 8 8" id="icon-delete"><title>delete</title><path d="M2 1L0 4l2 3h6V1H2zM3.5.78L5 2.28 6.5.78l.72.72L5.72 3l1.5 1.5-.72.72L5 3.72l-1.5 1.5-.72-.72L4.28 3l-1.5-1.5.72-.72z"/></symbol><symbol viewBox="0 0 8 8" id="icon-dial"><title>dial</title><path d="M4 1C1.8 1 0 2.8 0 5h1c0-1.66 1.34-3 3-3s3 1.34 3 3h1c0-2.2-1.8-4-4-4zm-.59 1.09C2.6 2.34 2 3.1 2 4c0 1.11.9 2 2 2 1.11 0 2-.89 2-2 0-.9-.59-1.65-1.41-1.91L4 2.97l-.59-.88z"/></symbol><symbol viewBox="0 0 8 8" id="icon-document"><title>document</title><path d="M0 0v8h7V4H3V0H0zm4 0v3h3L4 0zM1 2h1v1H1V2zm0 2h1v1H1V4zm0 2h4v1H1V6z"/></symbol><symbol viewBox="0 0 8 8" id="icon-dollar"><title>dollar</title><path d="M3 0v1h-.75C1.57 1 1 1.57 1 2.25v.5c0 .68.44 1.24 1.09 1.41l2.56.66c.14.04.34.29.34.44v.5c0 .14-.11.25-.25.25h-2.5c-.12 0-.21-.04-.25-.06v-.94h-1v1c0 .34.2.63.44.78.23.16.52.22.81.22h.75v1h1v-1h.75c.69 0 1.25-.56 1.25-1.25v-.5c0-.68-.44-1.24-1.09-1.41l-2.56-.66C2.2 3.15 2 2.9 2 2.75v-.5c0-.14.11-.25.25-.25h2.5c.11 0 .21.04.25.06V3h1V2c0-.34-.2-.63-.44-.78-.23-.16-.52-.22-.81-.22H4V0H3z"/></symbol><symbol viewBox="0 0 8 8" id="icon-double-quote-sans-left"><title>double-quote-sans-left</title><path d="M0 1v6l3-3V1H0zm5-1v6l3-3V0H5z"/></symbol><symbol viewBox="0 0 8 8" id="icon-double-quote-sans-right"><title>double-quote-sans-right</title><path d="M3 1L0 4v3h3V1zm5-1L5 3v3h3V0z"/></symbol><symbol viewBox="0 0 8 8" id="icon-double-quote-serif-left"><title>double-quote-serif-left</title><path d="M3 1C1.35 1 0 2.35 0 4v3h3V4H1c0-1.11.89-2 2-2V1zm5-1C6.35 0 5 1.35 5 3v3h3V3H6c0-1.11.89-2 2-2V0z"/></symbol><symbol viewBox="0 0 8 8" id="icon-double-quote-serif-right"><title>double-quote-serif-right</title><path d="M0 1v3h2c0 1.11-.89 2-2 2v1c1.65 0 3-1.35 3-3V1H0zm5-1v3h2c0 1.11-.89 2-2 2v1c1.65 0 3-1.35 3-3V0H5z"/></symbol><symbol viewBox="0 0 8 8" id="icon-droplet"><title>droplet</title><path d="M4 0l-.34.34C3.55.45 1 3.03 1 5.22c0 1.65 1.35 3 3 3s3-1.35 3-3C7 3.04 4.45.45 4.34.34L4 0zM.5 4.72c.28 0 .5.22.5.5 0 .55.45 1 1 1 .28 0 .5.22.5.5s-.22.5-.5.5c-1.1 0-2-.9-2-2 0-.28.22-.5.5-.5z"/></symbol><symbol viewBox="0 0 8 8" id="icon-eject"><title>eject</title><path d="M4 0L0 5h8L4 0zM0 6v2h8V6H0z"/></symbol><symbol viewBox="0 0 8 8" id="icon-elevator"><title>elevator</title><path d="M4 0L1 3h6L4 0zM0 5l3 3 3-3H0z"/></symbol><symbol viewBox="0 0 8 8" id="icon-ellipses"><title>ellipses</title><path d="M0 3v2h2V3H0zm3-3v2h2V0H3zm3 0v2h2V0H6z"/></symbol><symbol viewBox="0 0 8 8" id="icon-envelope-closed"><title>envelope-closed</title><path d="M0 1v1l4 2 4-2V1H0zm0 1v4h8V2L4 4 0 2z"/></symbol><symbol viewBox="0 0 8 8" id="icon-envelope-open"><title>envelope-open</title><path d="M4 0L0 2v6h8V2L4 0zm0 1.13l3 1.5v1.88l-3 1.5-3-1.5V2.63l3-1.5zM2 3.01v1l2 1 2-1v-1H2z"/></symbol><symbol viewBox="0 0 8 8" id="icon-euro"><title>euro</title><path d="M5 0C3.14 0 1.6 1.28 1.16 3H-.75L-1 4h2.01c0 .35.07.68.16 1H-.8l-.19 1h2.56c.7 1.19 1.97 2 3.44 2 .73 0 1.41-.21 2-.56V6.22c-.53.48-1.22.78-2 .78-.89 0-1.67-.39-2.22-1h2.22l.16-1H2.2c-.11-.32-.19-.64-.19-1h3.34l.16-1H2.2c.41-1.16 1.51-2 2.81-2 .66 0 1.26.21 1.75.56L6.92.5C6.35.19 5.71 0 5.01 0z"/></symbol><symbol viewBox="0 0 8 8" id="icon-excerpt"><title>excerpt</title><path d="M0 0v1h7V0H0zm0 2v1h5V2H0zm0 2v1h8V4H0zm0 2v1h1V6H0zm2 0v1h1V6H2zm2 0v1h1V6H4z"/></symbol><symbol viewBox="0 0 8 8" id="icon-expand-down"><title>expand-down</title><path d="M0 0v1h8V0H0zm2 2l2 2 2-2H2zM0 6v2h8V6H0z"/></symbol><symbol viewBox="0 0 8 8" id="icon-expand-left"><title>expand-left</title><path d="M0 0v8h1V0H0zm6 0v8h2V0H6zM2 2v4l2-2-2-2z"/></symbol><symbol viewBox="0 0 8 8" id="icon-expand-right"><title>expand-right</title><path d="M0 0v8h2V0H0zm7 0v8h1V0H7zM6 2L4 4l2 2V2z"/></symbol><symbol viewBox="0 0 8 8" id="icon-expand-up"><title>expand-up</title><path d="M0 0v2h8V0H0zm4 4L2 6h4L4 4zM0 7v1h8V7H0z"/></symbol><symbol viewBox="0 0 8 8" id="icon-external-link"><title>external-link</title><path d="M0 0v8h8V6H7v1H1V1h1V0H0zm4 0l1.5 1.5L3 4l1 1 2.5-2.5L8 4V0H4z"/></symbol><symbol viewBox="0 0 8 8" id="icon-eye"><title>eye</title><path d="M4.03 1C1.5 1 0 4 0 4s1.5 3 4.03 3C6.5 7 8 4 8 4S6.5 1 4.03 1zM4 0c1.11 0 2 .9 2 2 0 1.11-.89 2-2 2-1.1 0-2-.89-2-2 0-1.1.9-2 2-2zm0 1c-.55 0-1 .45-1 1s.45 1 1 1 1-.45 1-1c0-.1-.04-.19-.06-.28-.08.16-.24.28-.44.28-.28 0-.5-.22-.5-.5 0-.2.12-.36.28-.44C4.19 2.03 4.1 2 4 2z"/></symbol><symbol viewBox="0 0 8 8" id="icon-eyedropper"><title>eyedropper</title><path d="M3.31 0a.5.5 0 0 0-.19.84l.63.63L.16 5.13 0 5.29v2.72h2.69l.16-.16 3.66-3.66.63.66a.5.5 0 1 0 .72-.69l-.94-.94.66-.66c.59-.58.59-1.54 0-2.13-.57-.57-1.56-.57-2.13 0l-.66.66-.94-.94a.5.5 0 0 0-.47-.16.5.5 0 0 0-.06 0zm1.16 2.19L5.78 3.5 2.62 6.66 1.34 5.35l3.13-3.16z"/></symbol><symbol viewBox="0 0 470.513 470.513" id="icon-facebook"><title>facebook</title><path d="M271.52 154.17v-40.54c0-6.087.28-10.8.85-14.13.567-3.336 1.857-6.616 3.86-9.854 1.998-3.236 5.235-5.47 9.705-6.708 4.476-1.24 10.424-1.858 17.85-1.858h40.54V0h-64.81c-37.5 0-64.433 8.897-80.803 26.69-16.368 17.8-24.55 44.015-24.55 78.66v48.82H125.62v81.085h48.537V470.51h97.362V235.257h64.8l8.563-81.086h-73.37z"/></symbol><symbol viewBox="0 0 8 8" id="icon-file"><title>file</title><path d="M0 0v8h7V4H3V0H0zm4 0v3h3L4 0z"/></symbol><symbol viewBox="0 0 8 8" id="icon-fire"><title>fire</title><path d="M2 0c1 2-2 3-2 5s2 3 2 3c-.98-1.98 2-3 2-5S2 0 2 0zm3 3c1 2-2 3-2 5h3c.4 0 1-.5 1-2 0-2-2-3-2-3z"/></symbol><symbol viewBox="0 0 8 8" id="icon-flag"><title>flag</title><path d="M0 0v8h1V0H0zm2 0v4h2v1h4L6 3.03 8 1H5V0H2z"/></symbol><symbol viewBox="0 0 8 8" id="icon-flash"><title>flash</title><path d="M3.5 0L2 3h2l-.66 2H2l1 3 3-3H4.5L6 2H4l1-2H3.5z"/></symbol><symbol viewBox="0 0 8 8" id="icon-folder"><title>folder</title><path d="M0 0v2h8V1H3V0H0zm0 3v4.5c0 .28.22.5.5.5h7c.28 0 .5-.22.5-.5V3H0z"/></symbol><symbol viewBox="0 0 8 8" id="icon-fork"><title>fork</title><path d="M1.5 0C.67 0 0 .67 0 1.5c0 .66.41 1.2 1 1.41V5.1c-.59.2-1 .75-1 1.41 0 .83.67 1.5 1.5 1.5S3 7.34 3 6.51c0-.6-.34-1.1-.84-1.34.09-.09.21-.16.34-.16h2c.82 0 1.5-.68 1.5-1.5v-.59c.59-.2 1-.75 1-1.41C7 .68 6.33.01 5.5.01S4 .68 4 1.51c0 .66.41 1.2 1 1.41v.59c0 .28-.22.5-.5.5h-2c-.17 0-.35.04-.5.09V2.91c.59-.2 1-.75 1-1.41C3 .67 2.33 0 1.5 0z"/></symbol><symbol viewBox="0 0 8 8" id="icon-fullscreen-enter"><title>fullscreen-enter</title><path d="M0 0v4l1.5-1.5L3 4l1-1-1.5-1.5L4 0H0zm5 4L4 5l1.5 1.5L4 8h4V4L6.5 5.5 5 4z"/></symbol><symbol viewBox="0 0 8 8" id="icon-fullscreen-exit"><title>fullscreen-exit</title><path d="M1 0L0 1l1.5 1.5L0 4h4V0L2.5 1.5 1 0zm3 4v4l1.5-1.5L7 8l1-1-1.5-1.5L8 4H4z"/></symbol><symbol viewBox="0 0 438.549 438.549" id="icon-github"><title>github</title><path d="M409.132 114.573c-19.608-33.596-46.205-60.194-79.798-79.8C295.736 15.166 259.057 5.365 219.27 5.365c-39.78 0-76.47 9.804-110.062 29.408-33.596 19.605-60.192 46.204-79.8 79.8C9.803 148.168 0 184.853 0 224.63c0 47.78 13.94 90.745 41.827 128.906 27.884 38.164 63.906 64.572 108.063 79.227 5.14.954 8.945.283 11.42-1.996 2.474-2.282 3.71-5.14 3.71-8.562 0-.57-.05-5.708-.144-15.417-.098-9.71-.144-18.18-.144-25.406l-6.567 1.136c-4.187.767-9.47 1.092-15.846 1-6.38-.09-13-.757-19.85-2-6.855-1.23-13.23-4.085-19.13-8.558-5.9-4.473-10.086-10.328-12.56-17.556l-2.856-6.57c-1.903-4.374-4.9-9.233-8.99-14.56-4.095-5.33-8.234-8.944-12.42-10.847l-2-1.43c-1.33-.952-2.568-2.1-3.71-3.43-1.143-1.33-1.998-2.663-2.57-3.997-.57-1.335-.097-2.43 1.43-3.29 1.523-.858 4.28-1.275 8.28-1.275l5.706.853c3.808.763 8.517 3.042 14.134 6.85 5.614 3.807 10.23 8.755 13.846 14.843 4.38 7.81 9.658 13.76 15.847 17.85 6.183 4.1 12.42 6.14 18.7 6.14 6.28 0 11.702-.474 16.272-1.42 4.562-.95 8.845-2.383 12.844-4.285 1.712-12.76 6.376-22.56 13.987-29.41-10.844-1.14-20.6-2.857-29.26-5.14-8.66-2.286-17.605-5.996-26.835-11.14-9.234-5.137-16.895-11.516-22.984-19.126-6.09-7.615-11.09-17.61-14.99-29.98-3.9-12.374-5.85-26.648-5.85-42.826 0-23.035 7.52-42.637 22.558-58.817-7.044-17.316-6.38-36.73 1.997-58.24 5.52-1.713 13.706-.426 24.554 3.855 10.85 4.285 18.793 7.954 23.84 10.996 5.045 3.04 9.09 5.617 12.134 7.707 17.706-4.948 35.977-7.42 54.82-7.42s37.116 2.472 54.822 7.42l10.85-6.85c7.418-4.57 16.18-8.758 26.26-12.565 10.09-3.806 17.803-4.854 23.135-3.14 8.56 21.51 9.325 40.923 2.28 58.24 15.035 16.18 22.558 35.788 22.558 58.818 0 16.18-1.96 30.5-5.854 42.968-3.9 12.47-8.94 22.46-15.126 29.98-6.19 7.52-13.9 13.85-23.13 18.987-9.233 5.14-18.183 8.85-26.84 11.137-8.663 2.285-18.416 4.003-29.264 5.145 9.894 8.564 14.842 22.08 14.842 40.54v60.23c0 3.42 1.19 6.28 3.572 8.56 2.38 2.28 6.133 2.95 11.273 1.995 44.164-14.653 80.186-41.062 108.07-79.226 27.88-38.16 41.83-81.13 41.83-128.91-.01-39.77-9.82-76.455-29.417-110.05z"/></symbol><symbol viewBox="0 0 8 8" id="icon-globe"><title>globe</title><path d="M4 0C1.79 0 0 1.79 0 4s1.79 4 4 4 4-1.79 4-4-1.79-4-4-4zm0 1c.33 0 .64.09.94.19-.21.2-.45.38-.41.56.04.18.69.13.69.5 0 .27-.42.35-.13.66.35.35-.64.98-.66 1.44-.03.83.84.97 1.53.97.42 0 .53.2.5.44-.54.77-1.46 1.25-2.47 1.25-.38 0-.73-.09-1.06-.22.22-.44-.28-1.31-.75-1.59-.23-.23-.72-.14-1-.25-.09-.27-.18-.54-.19-.84.03-.05.08-.09.16-.09.19 0 .45.38.59.34.18-.04-.74-1.31-.31-1.56.2-.12.6.39.47-.16-.12-.51.36-.28.66-.41.26-.11.45-.41.13-.59-.06-.03-.13-.1-.22-.19.45-.27.97-.44 1.53-.44zm2.31 1.09c.18.22.32.46.44.72v.03c-.04.07-.11.11-.22.22-.28.28-.32-.21-.44-.31-.13-.12-.6.02-.66-.13-.07-.18.5-.42.88-.53z"/></symbol><symbol viewBox="0 0 475.092 475.092" id="icon-google"><title>google</title><path d="M273.372 302.498c-5.04-6.762-10.608-13.045-16.7-18.842-6.09-5.804-12.183-11.088-18.27-15.845-6.093-4.75-11.66-9.32-16.703-13.7-5.05-4.374-9.14-8.945-12.28-13.702-3.14-4.756-4.71-9.61-4.71-14.557 0-6.855 2.19-13.28 6.562-19.274 4.376-5.996 9.706-11.8 15.985-17.417 6.28-5.617 12.56-11.753 18.844-18.415 6.276-6.665 11.604-15.465 15.985-26.412 4.372-10.943 6.562-23.457 6.562-37.54 0-16.75-3.713-32.836-11.136-48.25-7.42-15.42-17.89-27.413-31.403-35.977h38.54L303.2 0H178.44c-17.698 0-35.497 1.906-53.383 5.72-26.453 5.9-48.723 19.368-66.806 40.397-18.08 21.033-27.12 44.873-27.12 71.52 0 28.17 10.14 51.583 30.41 70.233 20.27 18.65 44.588 27.978 72.948 27.978 5.71 0 12.37-.478 19.986-1.427-.38 1.53-1.043 3.57-1.997 6.14s-1.715 4.62-2.286 6.14c-.57 1.52-1.047 3.38-1.425 5.57-.38 2.19-.57 4.43-.57 6.71 0 12.564 6.086 26.745 18.27 42.54-14.464.39-28.736 1.67-42.824 3.86-14.083 2.19-28.832 5.618-44.25 10.28-15.417 4.66-29.217 11.42-41.396 20.27-12.182 8.856-21.317 19.368-27.41 31.55C3.534 361.56.01 374.41.01 386.02c0 12.75 2.857 24.313 8.565 34.69 5.708 10.37 13.035 18.84 21.982 25.405 8.945 6.57 19.273 12.083 30.978 16.562 11.704 4.47 23.315 7.66 34.83 9.562 11.515 1.903 22.887 2.854 34.118 2.854 51.007 0 90.98-12.46 119.91-37.39 26.647-23.222 39.97-50.06 39.97-80.516 0-10.855-1.57-20.984-4.712-30.41-3.14-9.43-7.23-17.513-12.27-24.27zm-110.06-103.776c-9.708 0-18.938-2.475-27.695-7.426-8.757-4.95-16.18-11.374-22.27-19.273-6.088-7.898-11.418-16.796-15.987-26.695-4.567-9.896-7.944-19.792-10.135-29.692-2.19-9.895-3.284-19.318-3.284-28.265 0-18.27 4.86-33.97 14.57-47.1 9.706-13.133 23.41-19.7 41.11-19.7 12.565 0 23.937 3.9 34.12 11.704 10.183 7.804 18.177 17.7 23.984 29.69C203.52 73.95 208 86.37 211.14 99.22c3.14 12.847 4.71 24.983 4.71 36.403 0 19.035-4.138 34.316-12.418 45.83-8.283 11.516-21.65 17.274-40.116 17.274zm78.94 214.4c-5.23 8.95-12.32 15.94-21.268 20.982-8.946 5.048-18.51 8.758-28.693 11.14-10.18 2.385-20.88 3.572-32.12 3.572-12.18 0-24.27-1.43-36.25-4.284-11.99-2.85-23.46-7.187-34.402-12.99-10.943-5.8-19.794-13.8-26.55-23.983-6.757-10.19-10.135-21.75-10.135-34.69 0-11.42 2.568-21.61 7.708-30.55 5.143-8.95 11.71-16.09 19.703-21.41 7.992-5.33 17.32-9.72 27.98-13.13 10.66-3.44 20.934-5.81 30.83-7.14 9.894-1.34 19.984-2 30.26-2 6.283 0 11.043.19 14.277.565 1.142.767 4.042 2.76 8.707 5.996s7.804 5.428 9.423 6.57c1.614 1.137 4.566 3.326 8.85 6.563 4.28 3.235 7.326 5.66 9.134 7.28 1.804 1.615 4.422 4.042 7.85 7.276 3.424 3.237 5.948 6.043 7.566 8.422 1.613 2.377 3.614 5.28 5.994 8.7 2.38 3.434 4.043 6.716 4.998 9.856.948 3.14 1.854 6.564 2.707 10.274.85 3.72 1.28 7.57 1.28 11.57.003 11.987-2.615 22.456-7.85 31.397zM401.998 73.09V0h-36.55v73.09h-73.09v36.546h73.09v73.09H402v-73.09h73.083V73.09z"/></symbol><symbol viewBox="0 0 8 8" id="icon-graph"><title>graph</title><path d="M7.03 0L4 3 3 2 0 5.03l1 1L3 4l1 1 4-4-.97-1zM0 7v1h8V7H0z"/></symbol><symbol viewBox="0 0 8 8" id="icon-grid-four-up"><title>grid-four-up</title><path d="M0 0v1h1V0H0zm2 0v1h1V0H2zm2 0v1h1V0H4zm2 0v1h1V0H6zM0 2v1h1V2H0zm2 0v1h1V2H2zm2 0v1h1V2H4zm2 0v1h1V2H6zM0 4v1h1V4H0zm2 0v1h1V4H2zm2 0v1h1V4H4zm2 0v1h1V4H6zM0 6v1h1V6H0zm2 0v1h1V6H2zm2 0v1h1V6H4zm2 0v1h1V6H6z"/></symbol><symbol viewBox="0 0 8 8" id="icon-grid-three-up"><title>grid-three-up</title><path d="M0 0v2h2V0H0zm3 0v2h2V0H3zm3 0v2h2V0H6zM0 3v2h2V3H0zm3 0v2h2V3H3zm3 0v2h2V3H6zM0 6v2h2V6H0zm3 0v2h2V6H3zm3 0v2h2V6H6z"/></symbol><symbol viewBox="0 0 8 8" id="icon-grid-two-up"><title>grid-two-up</title><path d="M0 0v3h3V0H0zm5 0v3h3V0H5zM0 5v3h3V5H0zm5 0v3h3V5H5z"/></symbol><symbol viewBox="0 0 8 8" id="icon-hard-drive"><title>hard-drive</title><path d="M.19 0C.08 0 0 .08 0 .19V3.5c0 .28.22.5.5.5h6c.28 0 .5-.22.5-.5V.19C7 .08 6.92 0 6.81 0H.18zM0 4.91v2.91c0 .11.08.19.19.19h6.63c.11 0 .19-.08.19-.19V4.91c-.16.06-.32.09-.5.09h-6c-.18 0-.34-.04-.5-.09zM5.5 6c.28 0 .5.22.5.5s-.22.5-.5.5-.5-.22-.5-.5.22-.5.5-.5z"/></symbol><symbol viewBox="0 0 8 8" id="icon-header"><title>header</title><path d="M0 0v1h.5c.28 0 .5.22.5.5v4c0 .28-.22.5-.5.5H0v1h3V6h-.5c-.28 0-.5-.22-.5-.5V4h3v1.5c0 .28-.22.5-.5.5H4v1h3V6h-.5c-.28 0-.5-.22-.5-.5v-4c0-.28.22-.5.5-.5H7V0H4v1h.5c.28 0 .5.22.5.5V3H2V1.5c0-.28.22-.5.5-.5H3V0H0z"/></symbol><symbol viewBox="0 0 8 8" id="icon-headphones"><title>headphones</title><path d="M4 0C2.35 0 1 1.35 1 3v1H.5a.5.5 0 0 0-.5.5v2a.5.5 0 0 0 .5.5h1a.5.5 0 0 0 .5-.5V3c0-1.11.89-2 2-2 1.11 0 2 .89 2 2v3.5a.5.5 0 0 0 .5.5h1a.5.5 0 0 0 .5-.5v-2a.5.5 0 0 0-.5-.5H7V3c0-1.65-1.35-3-3-3z"/></symbol><symbol viewBox="0 0 8 8" id="icon-heart"><title>heart</title><path d="M2 1c-.55 0-1.04.23-1.41.59C.23 1.95 0 2.44 0 3c0 .55.23 1.04.59 1.41L4 7.82l3.41-3.41C7.77 4.05 8 3.56 8 3c0-.55-.23-1.04-.59-1.41C7.05 1.23 6.56 1 6 1c-.55 0-1.04.23-1.41.59C4.23 1.95 4 2.44 4 3c0-.55-.23-1.04-.59-1.41C3.05 1.23 2.56 1 2 1z"/></symbol><symbol viewBox="0 0 8 8" id="icon-home"><title>home</title><path d="M4 0L0 3h1v4h2V5h2v2h2V2.97L8 3 4 0z"/></symbol><symbol viewBox="0 0 8 8" id="icon-image"><title>image</title><path d="M0 0v8h8V0H0zm1 1h6v3L6 3 5 4l2 2v1H6L2 3 1 4V1z"/></symbol><symbol viewBox="0 0 8 8" id="icon-inbox"><title>inbox</title><path d="M.19 0C.08 0 0 .08 0 .19v7.63c0 .11.08.19.19.19h7.63c.11 0 .19-.08.19-.19V.19c0-.11-.08-.19-.19-.19H.19zM1 2h6v3H6L5 6H3L2 5H1V2z"/></symbol><symbol viewBox="0 0 8 8" id="icon-infinity"><title>infinity</title><path d="M2 2C.69 2 0 3.01 0 4s.69 2 2 2c.79 0 1.42-.56 2-1.22C4.58 5.44 5.19 6 6 6c1.31 0 2-1.01 2-2s-.69-2-2-2c-.81 0-1.42.56-2 1.22C3.42 2.56 2.79 2 2 2zm0-1c.42 0 .88.47 1.34 1-.46.53-.92 1-1.34 1-.74 0-1-.54-1-1 0-.46.26-1 1-1zm4 0c.74 0 1 .54 1 1 0 .46-.26 1-1 1-.43 0-.89-.47-1.34-1 .46-.53.91-1 1.34-1z"/></symbol><symbol viewBox="0 0 8 8" id="icon-info"><title>info</title><path d="M5 0c-.55 0-1 .45-1 1s.45 1 1 1 1-.45 1-1-.45-1-1-1zM-.5 2.5c1.17 0 .5.67.5 1.5h1c0-.28.22-.5.5-.5s.5.22.5.5-1 1.64-1 2.5C1 7.36 1.67 8 2.5 8S4 7.33 4 6.5H3c0 .28-.22.5-.5.5S2 6.78 2 6.5C2 6.14 3 4.66 3 4c0-.81-.67-1.5-1.5-1.5z"/></symbol><symbol viewBox="0 0 35 35" id="icon-information"><title>information</title><path d="M17.83 35.33a17.5 17.5 0 1 1 17.5-17.5 17.52 17.52 0 0 1-17.5 17.5zm0-33a15.54 15.54 0 1 0 15.54 15.5A15.55 15.55 0 0 0 17.83 2.29zm.02 11.15a2.95 2.95 0 1 1 2.95-2.95 2.95 2.95 0 0 1-2.95 2.95zm4.57 11.01h-1.67v-9.57a1 1 0 0 0-1-1h-6.51a1 1 0 0 0 0 2h1.67v8.59h-1.67a1 1 0 0 0 0 2h9.19a1 1 0 0 0-.01-2.02z" transform="translate(-.33 -.33)"/></symbol><symbol viewBox="0 0 438.536 438.536" id="icon-instagram"><title>instagram</title><path d="M421.98 16.562C410.94 5.52 397.71 0 382.3 0H56.248C40.83 0 27.604 5.52 16.56 16.562 5.52 27.6 0 40.828 0 56.242V382.29c0 15.413 5.52 28.644 16.56 39.683 11.044 11.04 24.273 16.563 39.688 16.563h326.046c15.41 0 28.644-5.523 39.684-16.563 11.043-11.04 16.557-24.27 16.557-39.683V56.243c0-15.418-5.514-28.64-16.554-39.68zM157.463 158.025c17.224-16.652 37.924-24.982 62.097-24.982 24.36 0 45.152 8.33 62.38 24.982 17.228 16.655 25.837 36.785 25.837 60.386 0 23.6-8.61 43.73-25.837 60.38-17.228 16.66-38.014 24.99-62.38 24.99-24.173 0-44.87-8.33-62.098-24.99s-25.84-36.78-25.84-60.38 8.612-43.73 25.84-60.38zM388.865 370.59c0 4.944-1.718 9.082-5.14 12.415-3.434 3.33-7.52 4.996-12.283 4.996h-305.2c-4.948 0-9.09-1.66-12.42-4.99-3.332-3.323-4.997-7.47-4.997-12.413v-185.02H89.08c-3.805 11.994-5.708 24.463-5.708 37.403 0 36.552 13.322 67.714 39.97 93.51 26.65 25.786 58.72 38.685 96.216 38.685 24.744 0 47.583-5.903 68.527-17.703 20.937-11.81 37.486-27.84 49.676-48.113 12.19-20.274 18.28-42.4 18.28-66.38 0-12.94-1.91-25.408-5.712-37.404h38.548V370.59zm0-254.964c0 5.52-1.903 10.184-5.716 13.99-3.81 3.81-8.47 5.71-13.99 5.71h-49.68c-5.52 0-10.19-1.902-13.99-5.71-3.81-3.806-5.71-8.47-5.71-13.99V68.522c0-5.33 1.9-9.945 5.71-13.848 3.8-3.9 8.47-5.854 13.99-5.854h49.67c5.523 0 10.185 1.952 13.99 5.854 3.81 3.903 5.715 8.518 5.715 13.848v47.104z"/></symbol><symbol viewBox="0 0 8 8" id="icon-italic"><title>italic</title><path d="M2 0v1h1.63l-.06.13-2 5-.34.88H.01v1h5v-1H3.38l.06-.13 2-5L5.78 1H7V0H2z"/></symbol><symbol viewBox="0 0 8 8" id="icon-justify-center"><title>justify-center</title><path d="M0 0v1h8V0H0zm0 2v1h8V2H0zm0 2v1h8V4H0zm1 2v1h6V6H1z"/></symbol><symbol viewBox="0 0 8 8" id="icon-justify-left"><title>justify-left</title><path d="M0 0v1h8V0H0zm0 2v1h8V2H0zm0 2v1h8V4H0zm0 2v1h6V6H0z"/></symbol><symbol viewBox="0 0 8 8" id="icon-justify-right"><title>justify-right</title><path d="M0 0v1h8V0H0zm0 2v1h8V2H0zm0 2v1h8V4H0zm2 2v1h6V6H2z"/></symbol><symbol viewBox="0 0 8 8" id="icon-key"><title>key</title><path d="M5.5 0C4.12 0 3 1.12 3 2.5c0 .16 0 .32.03.47L0 6v2h3V6h2V5l.03-.03c.15.03.31.03.47.03C6.88 5 8 3.88 8 2.5S6.88 0 5.5 0zM6 1c.55 0 1 .45 1 1s-.45 1-1 1-1-.45-1-1 .45-1 1-1z"/></symbol><symbol viewBox="0 0 8 8" id="icon-laptop"><title>laptop</title><path d="M1.34 0A.5.5 0 0 0 1 .5V4H0v1.5c0 .28.22.5.5.5h7.01c.28 0 .5-.22.5-.5V4h-1V.5a.5.5 0 0 0-.5-.5h-5a.5.5 0 0 0-.09 0 .5.5 0 0 0-.06 0zM2 1h4v3H5v1H3V4H2V1z" transform="translate(0 1)"/></symbol><symbol viewBox="0 0 8 8" id="icon-layers"><title>layers</title><path d="M0 0v4h4V0H0zm5 2v3H2v1h4V2H5zm2 2v3H4v1h4V4H7z"/></symbol><symbol viewBox="0 0 8 8" id="icon-lightbulb"><title>lightbulb</title><path d="M3.41 0a.5.5 0 0 0-.13.06l-3 1.5a.5.5 0 1 0 .44.88l3-1.5A.5.5 0 0 0 3.41 0zm1 1.5a.5.5 0 0 0-.13.06l-4 2a.5.5 0 1 0 .44.88l4-2a.5.5 0 0 0-.31-.94zm0 2a.5.5 0 0 0-.13.06l-3 1.5A.5.5 0 0 0 1.5 6h2a.5.5 0 0 0 .16-1l1.06-.56a.5.5 0 0 0-.31-.94zM1.85 7a.5.5 0 0 0 .16 1h1a.5.5 0 1 0 0-1h-1a.5.5 0 0 0-.09 0 .5.5 0 0 0-.06 0z" transform="translate(1)"/></symbol><symbol viewBox="0 0 8 8" id="icon-link-broken"><title>link-broken</title><path d="M2 0v1H1v1h2V0H2zm3.88.03c-.18.01-.36.03-.53.09-.27.1-.53.25-.75.47l-.44.44a.5.5 0 1 0 .69.69l.44-.44c.11-.11.24-.17.38-.22.35-.12.78-.07 1.06.22.39.39.39 1.04 0 1.44l-1.5 1.5a.5.5 0 1 0 .69.69l1.5-1.5c.78-.78.78-2.04 0-2.81-.28-.28-.61-.45-.97-.53-.18-.04-.38-.04-.56-.03zM2.29 2.94a.5.5 0 0 0-.19.16L.6 4.6c-.78.78-.78 2.04 0 2.81.56.56 1.36.72 2.06.47.27-.1.53-.25.75-.47l.44-.44a.5.5 0 1 0-.69-.69l-.44.44c-.11.11-.24.17-.38.22-.35.12-.78.07-1.06-.22-.39-.39-.39-1.04 0-1.44l1.5-1.5a.5.5 0 0 0-.44-.84.5.5 0 0 0-.06 0zM5.01 6v2h1V7h1V6h-2z"/></symbol><symbol viewBox="0 0 8 8" id="icon-link-intact"><title>link-intact</title><path d="M5.88.03c-.18.01-.36.03-.53.09-.27.1-.53.25-.75.47a.5.5 0 1 0 .69.69c.11-.11.24-.17.38-.22.35-.12.78-.07 1.06.22.39.39.39 1.04 0 1.44l-1.5 1.5c-.44.44-.8.48-1.06.47-.26-.01-.41-.13-.41-.13a.5.5 0 1 0-.5.88s.34.22.84.25c.5.03 1.2-.16 1.81-.78l1.5-1.5c.78-.78.78-2.04 0-2.81C7.13.32 6.8.15 6.44.07 6.26.03 6.06.03 5.88.04zm-2 2.31c-.5-.02-1.19.15-1.78.75L.6 4.59c-.78.78-.78 2.04 0 2.81.56.56 1.36.72 2.06.47.27-.1.53-.25.75-.47a.5.5 0 1 0-.69-.69c-.11.11-.24.17-.38.22-.35.12-.78.07-1.06-.22-.39-.39-.39-1.04 0-1.44l1.5-1.5c.4-.4.75-.45 1.03-.44.28.01.47.09.47.09a.5.5 0 1 0 .44-.88s-.34-.2-.84-.22z"/></symbol><symbol viewBox="0 0 8 8" id="icon-list-rich"><title>list-rich</title><path d="M0 0v3h3V0H0zm4 0v1h4V0H4zm0 2v1h3V2H4zM0 4v3h3V4H0zm4 0v1h4V4H4zm0 2v1h3V6H4z"/></symbol><symbol viewBox="0 0 8 8" id="icon-list"><title>list</title><path d="M.5 0C.22 0 0 .22 0 .5s.22.5.5.5.5-.22.5-.5S.78 0 .5 0zM2 0v1h6V0H2zM.5 2c-.28 0-.5.22-.5.5s.22.5.5.5.5-.22.5-.5S.78 2 .5 2zM2 2v1h6V2H2zM.5 4c-.28 0-.5.22-.5.5s.22.5.5.5.5-.22.5-.5S.78 4 .5 4zM2 4v1h6V4H2zM.5 6c-.28 0-.5.22-.5.5s.22.5.5.5.5-.22.5-.5S.78 6 .5 6zM2 6v1h6V6H2z"/></symbol><symbol viewBox="0 0 8 8" id="icon-location"><title>location</title><path d="M8 0L0 4l3 1 1 3 4-8z"/></symbol><symbol viewBox="0 0 8 8" id="icon-lock-locked"><title>lock-locked</title><path d="M4 0C2.9 0 2 .9 2 2v1H1v4h6V3H6V2c0-1.1-.9-2-2-2zM2 1c.56 0 1 .44 1 1v1H2V2c0-.56.44-1 1-1z"/></symbol><symbol viewBox="0 0 8 8" id="icon-lock-unlocked"><title>lock-unlocked</title><path d="M4 0C2.9 0 2 .9 2 2h1c0-.56.44-1 1-1s1 .44 1 1v2H1v4h6V4H6V2c0-1.1-.9-2-2-2z"/></symbol><symbol viewBox="0 0 8 8" id="icon-loop-circular"><title>loop-circular</title><path d="M4 1C2.35 1 1 2.35 1 4H0l1.5 2L3 4H2c0-1.11.89-2 2-2V1zm2.5 0L5 3h1c0 1.11-.89 2-2 2v1c1.65 0 3-1.35 3-3h1L6.5 1z"/></symbol><symbol viewBox="0 0 8 8" id="icon-loop-square"><title>loop-square</title><path d="M1 0v2h1V1h4v2H5l1.5 2.5L8 3H7V0H1zm.5 2.5L0 5h1v3h6V6H6v1H2V5h1L1.5 2.5z"/></symbol><symbol viewBox="0 0 8 8" id="icon-loop"><title>loop</title><path d="M6 0v1H1c-.55 0-1 .45-1 1v1h1V2h5v1l2-1.5L6 0zM2 4L0 5.5 2 7V6h5c.55 0 1-.45 1-1V4H7v1H2V4z"/></symbol><symbol viewBox="0 0 8 8" id="icon-magnifying-glass"><title>magnifying-glass</title><path d="M3.5 0C1.57 0 0 1.57 0 3.5S1.57 7 3.5 7c.59 0 1.17-.14 1.66-.41a1 1 0 0 0 .13.13l1 1a1.02 1.02 0 1 0 1.44-1.44l-1-1a1 1 0 0 0-.16-.13c.27-.49.44-1.06.44-1.66 0-1.93-1.57-3.5-3.5-3.5zm0 1C4.89 1 6 2.11 6 3.5c0 .66-.24 1.27-.66 1.72l-.03.03a1 1 0 0 0-.13.13c-.44.4-1.04.63-1.69.63-1.39 0-2.5-1.11-2.5-2.5s1.11-2.5 2.5-2.5z"/></symbol><symbol viewBox="0 0 8 8" id="icon-map-marker"><title>map-marker</title><path d="M4 0C2.34 0 1 1.34 1 3c0 2 3 5 3 5s3-3 3-5c0-1.66-1.34-3-3-3zM2 1c1.11 0 2 .9 2 2 0 1.11-.89 2-2 2-1.1 0-2-.89-2-2 0-1.1.9-2 2-2z"/></symbol><symbol viewBox="0 0 8 8" id="icon-map"><title>map</title><path d="M0 0v8h8V5.62a.5.5 0 0 0 0-.22V-.01H0zm1 1h6v4H5.5a.5.5 0 0 0-.09 0 .5.5 0 1 0 .09 1H7v1H1V1zm2.5 1C2.67 2 2 2.67 2 3.5 2 4.5 3.5 6 3.5 6S5 4.5 5 3.5C5 2.67 4.33 2 3.5 2zm0 1c.28 0 .5.22.5.5s-.22.5-.5.5-.5-.22-.5-.5.22-.5.5-.5z"/></symbol><symbol viewBox="0 0 8 8" id="icon-media-pause"><title>media-pause</title><path d="M1 1v6h2V1H1zm3-1v6h2V0H4z"/></symbol><symbol viewBox="0 0 8 8" id="icon-media-play"><title>media-play</title><path d="M1 1v6l6-3-6-3z"/></symbol><symbol viewBox="0 0 8 8" id="icon-media-record"><title>media-record</title><path d="M4 1C2.34 1 1 2.34 1 4s1.34 3 3 3 3-1.34 3-3-1.34-3-3-3z"/></symbol><symbol viewBox="0 0 8 8" id="icon-media-skip-backward"><title>media-skip-backward</title><path d="M4 1L0 4l4 3V1zm0 2l4 3V0L4 3z"/></symbol><symbol viewBox="0 0 8 8" id="icon-media-skip-forward"><title>media-skip-forward</title><path d="M0 1v6l4-3-4-3zm4 2v3l4-3-4-3v3z"/></symbol><symbol viewBox="0 0 8 8" id="icon-media-step-backward"><title>media-step-backward</title><path d="M0 1v6h2V1H0zm2 2l5 3V0L2 3z"/></symbol><symbol viewBox="0 0 8 8" id="icon-media-step-forward"><title>media-step-forward</title><path d="M0 1v6l5-3-5-3zm5 2v3h2V0H5v3z"/></symbol><symbol viewBox="0 0 8 8" id="icon-media-stop"><title>media-stop</title><path d="M1 1v6h6V1H1z"/></symbol><symbol viewBox="0 0 8 8" id="icon-medical-cross"><title>medical-cross</title><path d="M2 0v2H0v4h2v2h4V6h2V2H6V0H2z"/></symbol><symbol viewBox="0 0 35 35" id="icon-meetings"><title>meetings</title><path d="M17.5 0A17.5 17.5 0 1 0 35 17.5 17.52 17.52 0 0 0 17.5 0zm0 33A15.54 15.54 0 1 1 33 17.5 15.55 15.55 0 0 1 17.5 33zM25 13.46A7.55 7.55 0 0 0 17.5 7c-.14 0-1.09.11-1.41.17a7.4 7.4 0 0 0-5.39 4.25 7.79 7.79 0 0 0-.45 1.31c0 .14-.21 1-.23 1.29v.76a7.41 7.41 0 0 0 1 3.54l3.74 6.48 1.77 3.06a1.23 1.23 0 0 0 1 .67 1.23 1.23 0 0 0 1.05-.68l1.53-2.66L24 18.41a7.47 7.47 0 0 0 1-3.61v-1.34zM14.89 12a3.62 3.62 0 1 1 2.57 6.17 3.62 3.62 0 0 1-3.62-3.61A3.59 3.59 0 0 1 14.89 12z"/></symbol><symbol viewBox="0 0 8 8" id="icon-menu"><title>menu</title><path d="M0 1v1h8V1H0zm0 1.97v1h8v-1H0zm0 3v1h8v-1H0z"/></symbol><symbol viewBox="0 0 8 8" id="icon-microphone"><title>microphone</title><path d="M2.91-.03a1 1 0 0 0-.13.03A1 1 0 0 0 2 1v2a1 1 0 1 0 2 0V1A1 1 0 0 0 2.91-.03zM.35 2a.5.5 0 0 0-.34.5V3c0 1.48 1.09 2.69 2.5 2.94V7h-.5c-.55 0-1 .45-1 1h4.01c0-.55-.45-1-1-1h-.5V5.94C4.93 5.7 6.02 4.48 6.02 3v-.5a.5.5 0 1 0-1 0V3c0 1.11-.89 2-2 2-1.11 0-2-.89-2-2v-.5A.5.5 0 0 0 .43 2a.5.5 0 0 0-.06 0z" transform="translate(1)"/></symbol><symbol viewBox="0 0 8 8" id="icon-minus"><title>minus</title><path d="M0 3v2h8V3H0z"/></symbol><symbol viewBox="0 0 8 8" id="icon-monitor"><title>monitor</title><path d="M.34 0A.5.5 0 0 0 0 .5v5a.5.5 0 0 0 .5.5H3v1H2c-.55 0-1 .45-1 1h6c0-.55-.45-1-1-1H5V6h2.5a.5.5 0 0 0 .5-.5v-5a.5.5 0 0 0-.5-.5h-7a.5.5 0 0 0-.09 0 .5.5 0 0 0-.06 0zM1 1h6v4H1V1z"/></symbol><symbol viewBox="0 0 8 8" id="icon-moon"><title>moon</title><path d="M2.72 0C1.14.53 0 2.02 0 3.78c0 2.21 1.79 4 4 4 1.76 0 3.25-1.14 3.78-2.72-.4.13-.83.22-1.28.22-2.21 0-4-1.79-4-4 0-.45.08-.88.22-1.28z"/></symbol><symbol viewBox="0 0 8 8" id="icon-move"><title>move</title><path d="M3.5 0L2 1.5h1V3H1.5V2L0 3.5 1.5 5V4H3v1.5H2L3.5 7 5 5.5H4V4h1.5v1L7 3.5 5.5 2v1H4V1.5h1L3.5 0z"/></symbol><symbol viewBox="0 0 8 8" id="icon-musical-note"><title>musical-note</title><path d="M8 0C3 0 2 1 2 1v4.09C1.85 5.04 1.67 5 1.5 5 .67 5 0 5.67 0 6.5S.67 8 1.5 8 3 7.33 3 6.5V2.53c.73-.23 1.99-.44 4-.5v2.06C6.85 4.04 6.67 4 6.5 4 5.67 4 5 4.67 5 5.5S5.67 7 6.5 7 8 6.33 8 5.5V0z"/></symbol><symbol viewBox="0 0 8 8" id="icon-paperclip"><title>paperclip</title><path d="M5 0c-.51 0-1.02.21-1.41.59L.81 3.31c-1.07 1.07-1.07 2.8 0 3.88 1.07 1.07 2.8 1.07 3.88 0l1.25-1.25-.69-.69-1.16 1.13-.09.13c-.69.69-1.81.69-2.5 0-.68-.68-.66-1.78 0-2.47l2.78-2.75c.39-.39 1.04-.39 1.44 0 .39.39.37 1.01 0 1.41l-2.5 2.47c-.1.1-.27.1-.38 0-.1-.1-.1-.27 0-.38l.06-.03.91-.94-.69-.69-.97.97c-.48.48-.48 1.27 0 1.75s1.27.49 1.75 0l2.5-2.44c.78-.78.78-2.04 0-2.81C6.01.21 5.51.01 4.99.01z"/></symbol><symbol viewBox="0 0 8 8" id="icon-pencil"><title>pencil</title><path d="M6 0L5 1l2 2 1-1-2-2zM4 2L0 6v2h2l4-4-2-2z"/></symbol><symbol viewBox="0 0 8 8" id="icon-people"><title>people</title><path d="M5.5 0c-.51 0-.95.35-1.22.88.45.54.72 1.28.72 2.13 0 .29-.03.55-.09.81.19.11.38.19.59.19.83 0 1.5-.9 1.5-2s-.67-2-1.5-2zm-3 1C1.67 1 1 1.9 1 3s.67 2 1.5 2S4 4.1 4 3s-.67-2-1.5-2zm4.75 3.16c-.43.51-1.02.82-1.69.84.27.38.44.84.44 1.34V7h2V5.34c0-.52-.31-.97-.75-1.19zm-6.5 1C.31 5.38 0 5.83 0 6.35v1.66h5V6.35c0-.52-.31-.97-.75-1.19C3.8 5.69 3.19 6 2.5 6S1.2 5.68.75 5.16z"/></symbol><symbol viewBox="0 0 8 8" id="icon-person"><title>person</title><path d="M4 0C2.9 0 2 1.12 2 2.5S2.9 5 4 5s2-1.12 2-2.5S5.1 0 4 0zM1.91 5C.85 5.05 0 5.92 0 7v1h8V7c0-1.08-.84-1.95-1.91-2-.54.61-1.28 1-2.09 1-.81 0-1.55-.39-2.09-1z"/></symbol><symbol viewBox="0 0 8 8" id="icon-phone"><title>phone</title><path d="M1.19 0C1.08 0 1 .08 1 .19v7.63c0 .11.08.19.19.19h4.63c.11 0 .19-.08.19-.19V.19c0-.11-.08-.19-.19-.19H1.19zM0 1h3v5H1V1zm1.5 5.5c.28 0 .5.22.5.5s-.22.5-.5.5.5-.22.5-.5.22-.5.5-.5z"/></symbol><symbol viewBox="0 0 8 8" id="icon-pie-chart"><title>pie-chart</title><path d="M3.5 0c-.97 0-1.84.4-2.47 1.03L4 4V.03C3.84.01 3.67 0 3.5 0zM5 1.06v3.41L2.28 7.19c.61.5 1.37.81 2.22.81C6.43 8 8 6.43 8 4.5c0-1.76-1.31-3.19-3-3.44zM.91 2.37C.35 2.91 0 3.66 0 4.5c0 .96.46 1.79 1.16 2.34l2.13-2.13L.91 2.37z"/></symbol><symbol viewBox="0 0 8 8" id="icon-pin"><title>pin</title><path d="M1.34 0a.5.5 0 0 0 .16 1H2v2H1c-.55 0-1 .45-1 1h3v3l.44 1L4 7V4h3c0-.55-.45-1-1-1H5V1h.5a.5.5 0 1 0 0-1h-4a.5.5 0 0 0-.09 0 .5.5 0 0 0-.06 0z"/></symbol><symbol viewBox="0 0 8 8" id="icon-play-circle"><title>play-circle</title><path d="M4 0C1.79 0 0 1.79 0 4s1.79 4 4 4 4-1.79 4-4-1.79-4-4-4zM3 2l3 2-3 2V2z"/></symbol><symbol viewBox="0 0 8 8" id="icon-plus"><title>plus</title><path d="M3 0v3H0v2h3v3h2V5h3V3H5V0H3z"/></symbol><symbol viewBox="0 0 8 8" id="icon-power-standby"><title>power-standby</title><path d="M3 0v4h1V0H3zM1.72 1.44l-.38.31C.53 2.39 0 3.39 0 4.5 0 6.43 1.57 8 3.5 8S7 6.43 7 4.5c0-1.11-.53-2.11-1.34-2.75l-.38-.31-.63.78.38.31C5.61 2.99 6 3.7 6 4.5 6 5.89 4.89 7 3.5 7S1 5.89 1 4.5c0-.8.36-1.51.94-1.97l.41-.31-.63-.78z"/></symbol><symbol viewBox="0 0 8 8" id="icon-print"><title>print</title><path d="M2 0v2h4V0H2zM.09 3C.03 3 0 3.04 0 3.09V5.9c0 .05.04.09.09.09H1v-2h6v2h.91c.05 0 .09-.04.09-.09V3.09C8 3.03 7.96 3 7.91 3H.1zM2 5v3h4V5H2z"/></symbol><symbol viewBox="0 0 8 8" id="icon-project"><title>project</title><path d="M0 0v7h1V0H0zm7 0v7h1V0H7zM2 1v1h2V1H2zm1 2v1h2V3H3zm1 2v1h2V5H4z"/></symbol><symbol viewBox="0 0 35 35" id="icon-proposals"><title>proposals</title><path d="M17.5 35A17.5 17.5 0 1 1 35 17.5 17.52 17.52 0 0 1 17.5 35zm0-33.06A15.56 15.56 0 1 0 33.06 17.5 15.57 15.57 0 0 0 17.5 1.94zm9.5 13.7H8a1 1 0 0 1 0-1.94h19a1 1 0 0 1 0 1.94zm0 3.68H8a1 1 0 0 1 0-1.94h19a1 1 0 0 1 0 1.94zM22.26 23H8a1 1 0 0 1 0-1.94h14.26a1 1 0 0 1 0 1.94z"/></symbol><symbol viewBox="0 0 8 8" id="icon-pulse"><title>pulse</title><path d="M3.25 0l-.47 1.53L2 4.09l-.03-.06-.09-.34H0v1h1.16l.38 1.16.47 1.47.47-1.5.78-2.5.78 2.5.41 1.34.53-1.28.59-1.47.13.28h2.31v-1H6.32l-.38-.75-.5-.97L5.03 3l-.47 1.19-.84-2.66L3.25 0z"/></symbol><symbol viewBox="0 0 8 8" id="icon-puzzle-piece"><title>puzzle-piece</title><path d="M3 0c-.28 0-.54.1-.72.28C2.1.46 2 .72 2 1c0 .28.18.48.28.72.03.06.03.16.03.28H0v6h2.31c0-.12-.01-.22-.03-.28C2.18 7.48 2 7.28 2 7c0-.28.1-.54.28-.72C2.46 6.1 2.72 6 3 6c.28 0 .54.1.72.28.18.18.28.44.28.72 0 .28-.18.48-.28.72-.03.06-.03.16-.03.28H6V5.69c.12 0 .22.01.28.03.24.1.44.28.72.28.28 0 .54-.1.72-.28C7.9 5.54 8 5.28 8 5c0-.28-.1-.54-.28-.72C7.54 4.1 7.28 4 7 4c-.28 0-.48.18-.72.28-.06.03-.16.03-.28.03V2H3.69c0-.12.01-.22.03-.28.1-.24.28-.44.28-.72 0-.28-.1-.54-.28-.72C3.54.1 3.28 0 3 0z"/></symbol><symbol viewBox="0 0 8 8" id="icon-question-mark"><title>question-mark</title><path d="M4.47 0c-.85 0-1.48.26-1.88.66-.4.4-.54.9-.59 1.28l1 .13c.04-.25.12-.5.31-.69C3.5 1.19 3.8 1 4.47 1c.66 0 1.02.16 1.22.34.2.18.28.4.28.66 0 .83-.34 1.06-.84 1.5-.5.44-1.16 1.08-1.16 2.25V6h1v-.25c0-.83.31-1.06.81-1.5.5-.44 1.19-1.08 1.19-2.25 0-.48-.17-1.02-.59-1.41C5.95.2 5.31 0 4.47 0zm-2.5 7v1h1V7h-1z"/></symbol><symbol viewBox="0 0 8 8" id="icon-rain"><title>rain</title><path d="M4.5 0C3.29 0 2.23.86 2 2 .9 2 0 2.9 0 4c0 .53.2.99.53 1.34.26-.22.6-.34.97-.34.2 0 .39.05.56.13C2.23 4.49 2.8 4 3.5 4c.69 0 1.27.49 1.44 1.13.17-.07.36-.13.56-.13.63 0 1.15.39 1.38.94.64-.17 1.13-.75 1.13-1.44 0-.65-.42-1.29-1-1.5v-.5c0-1.38-1.12-2.5-2.5-2.5zM3.34 5a.5.5 0 0 0-.34.5v2a.5.5 0 1 0 1 0v-2a.5.5 0 0 0-.59-.5.5.5 0 0 0-.06 0zm-2 1a.5.5 0 0 0-.34.5v1a.5.5 0 1 0 1 0v-1a.5.5 0 0 0-.59-.5.5.5 0 0 0-.06 0zm4 0a.5.5 0 0 0-.34.5v1a.5.5 0 1 0 1 0v-1a.5.5 0 0 0-.59-.5.5.5 0 0 0-.06 0z"/></symbol><symbol viewBox="0 0 8 8" id="icon-random"><title>random</title><path d="M6 0v1h-.5c-.35 0-.56.1-.78.38L3.31 3.16 1.78 1.38C1.56 1.12 1.34 1 1 1H0v1h1c-.05 0 .01.04.03.03l1.63 1.91L1 6H0v1h1c.35 0 .56-.1.78-.38l1.53-1.91 1.66 1.91c.22.26.44.38.78.38H6v1l2-1.5L6 5v1h-.22c-.01-.01-.05-.04-.06-.03L3.97 3.91 5.5 2H6v1l2-1.5L6 0z"/></symbol><symbol viewBox="0 0 8 8" id="icon-reload"><title>reload</title><path d="M4 0C1.8 0 0 1.8 0 4s1.8 4 4 4c1.1 0 2.12-.43 2.84-1.16l-.72-.72c-.54.54-1.29.88-2.13.88-1.66 0-3-1.34-3-3s1.34-3 3-3c.83 0 1.55.36 2.09.91L4.99 3h3V0L6.8 1.19C6.08.47 5.09 0 3.99 0z"/></symbol><symbol viewBox="0 0 8 8" id="icon-resize-both"><title>resize-both</title><path d="M4 0l1.66 1.66-4 4L0 4v4h4L2.34 6.34l4-4L8 4V0H4z"/></symbol><symbol viewBox="0 0 8 8" id="icon-resize-height"><title>resize-height</title><path d="M3.5 0L1 3h2v2H1l2.5 3L6 5H4V3h2L3.5 0z"/></symbol><symbol viewBox="0 0 8 8" id="icon-resize-width"><title>resize-width</title><path d="M3 1L0 3.5 3 6V4h2v2l3-2.5L5 1v2H3V1z"/></symbol><symbol viewBox="0 0 8 8" id="icon-rss-alt"><title>rss-alt</title><path d="M0 0v2c3.33 0 6 2.67 6 6h2c0-4.41-3.59-8-8-8zm0 3v2c1.67 0 3 1.33 3 3h2c0-2.75-2.25-5-5-5zm0 3v2h2c0-1.11-.9-2-2-2z"/></symbol><symbol viewBox="0 0 8 8" id="icon-rss"><title>rss</title><path d="M1 0v1c3.32 0 6 2.68 6 6h1c0-3.86-3.14-7-7-7zm0 2v1c2.21 0 4 1.79 4 4h1c0-2.76-2.24-5-5-5zm0 2v1c1.11 0 2 .89 2 2h1c0-1.65-1.35-3-3-3zm0 2c-.55 0-1 .45-1 1s.45 1 1 1 1-.45 1-1-.45-1-1-1z"/></symbol><symbol viewBox="0 0 8 8" id="icon-script"><title>script</title><path d="M3 0c-.55 0-1 .45-1 1v5.5c0 .28-.22.5-.5.5S1 6.78 1 6.5V5H0v2c0 .55.45 1 1 1h5c.55 0 1-.45 1-1V4H3V1.5c0-.28.22-.5.5-.5s.5.22.5.5V3h4V1c0-.55-.45-1-1-1H3z"/></symbol><symbol viewBox="0 0 8 8" id="icon-share-boxed"><title>share-boxed</title><path d="M.75 0C.34 0 0 .34 0 .75v5.5c0 .41.34.75.75.75h4.5c.41 0 .75-.34.75-.75V5H5v1H1V1h2V0H.75zM6 0v1C3.95 1 2.3 2.54 2.06 4.53 2.27 3.65 3.05 3 4 3h2v1l2-2-2-2z"/></symbol><symbol viewBox="0 0 8 8" id="icon-share"><title>share</title><path d="M5 0v2C1 2 0 4.05 0 7c.52-1.98 2-3 4-3h1v2l3-3.16L5 0z"/></symbol><symbol viewBox="0 0 8 8" id="icon-shield"><title>shield</title><path d="M4 0l-.19.09-3.5 1.47-.31.13V2c0 1.66.67 3.12 1.47 4.19.4.53.83.97 1.25 1.28.42.31.83.53 1.28.53.46 0 .86-.22 1.28-.53.42-.31.85-.75 1.25-1.28C7.33 5.12 8 3.66 8 2v-.31l-.31-.13L4.19.09 4 0zm0 1.09V7c-.04 0-.33-.07-.66-.31s-.71-.63-1.06-1.09c-.64-.85-1.14-2.03-1.22-3.28L4 1.1z"/></symbol><symbol viewBox="0 0 8 8" id="icon-signal"><title>signal</title><path d="M6 0v8h1V0H6zM4 1v7h1V1H4zM2 3v5h1V3H2zM0 5v3h1V5H0z"/></symbol><symbol viewBox="0 0 8 8" id="icon-signpost"><title>signpost</title><path d="M3 0v1H1L0 2l1 1h2v5h1V4h2l1-1-1-1H4V0H3z"/></symbol><symbol viewBox="0 0 8 8" id="icon-sort-ascending"><title>sort-ascending</title><path d="M2 0v6H0l2.5 2L5 6H3V0H2zm2 0v1h2V0H4zm0 2v1h3V2H4zm0 2v1h4V4H4z"/></symbol><symbol viewBox="0 0 8 8" id="icon-sort-descending"><title>sort-descending</title><path d="M2 0v6H0l2.5 2L5 6H3V0H2zm2 0v1h4V0H4zm0 2v1h3V2H4zm0 2v1h2V4H4z"/></symbol><symbol viewBox="0 0 8 8" id="icon-spreadsheet"><title>spreadsheet</title><path d="M.75 0C.34 0 0 .34 0 .75v5.5c0 .41.34.75.75.75h6.5c.41 0 .75-.34.75-.75V.75C8 .34 7.66 0 7.25 0H.75zM1 1h1v1H1V1zm2 0h4v1H3V1zM1 3h1v1H1V3zm2 0h4v1H3V3zM1 5h1v1H1V5zm2 0h4v1H3V5z"/></symbol><symbol viewBox="0 0 8 8" id="icon-star"><title>star</title><path d="M4 0L3 3H0l2.5 2-1 3L4 6l2.5 2-1-3L8 3H5L4 0z"/></symbol><symbol viewBox="0 0 8 8" id="icon-sun"><title>sun</title><path d="M4 0c-.28 0-.5.22-.5.5s.22.5.5.5.5-.22.5-.5S4.28 0 4 0zM1.5 1c-.28 0-.5.22-.5.5s.22.5.5.5.5-.22.5-.5-.22-.5-.5-.5zm5 0c-.28 0-.5.22-.5.5s.22.5.5.5.5-.22.5-.5-.22-.5-.5-.5zM4 2c-1.1 0-2 .9-2 2s.9 2 2 2 2-.9 2-2-.9-2-2-2zM.5 3.5c-.28 0-.5.22-.5.5s.22.5.5.5.5-.22.5-.5-.22-.5-.5-.5zm7 0c-.28 0-.5.22-.5.5s.22.5.5.5.5-.22.5-.5-.22-.5-.5-.5zM1.5 6c-.28 0-.5.22-.5.5s.22.5.5.5.5-.22.5-.5-.22-.5-.5-.5zm5 0c-.28 0-.5.22-.5.5s.22.5.5.5.5-.22.5-.5-.22-.5-.5-.5zM4 7c-.28 0-.5.22-.5.5s.22.5.5.5.5-.22.5-.5S4.28 7 4 7z"/></symbol><symbol viewBox="0 0 8 8" id="icon-tablet"><title>tablet</title><path d="M.34 0C.16 0 0 .16 0 .34v7.31c0 .18.16.34.34.34h6.31c.18 0 .34-.16.34-.34V.34c0-.18-.16-.34-.34-.34H.34zM1 1h5v5H1V1zm2.5 5.5c.38 0 .63.42.44.75s-.68.33-.88 0c-.19-.33.05-.75.44-.75z"/></symbol><symbol viewBox="0 0 8 8" id="icon-tag"><title>tag</title><path d="M0 0v3l5 5 3-3-5-5H0zm2 1c.55 0 1 .45 1 1s-.45 1-1 1-1-.45-1-1 .45-1 1-1z"/></symbol><symbol viewBox="0 0 8 8" id="icon-tags"><title>tags</title><path d="M0 1v2l3 3 1.5-1.5L5 4 3 2 2 1H0zm3.41-1l3 3-1.19 1.22L6 5l2-2-3-3H3.41zM1.5 1c.28 0 .5.22.5.5s-.22.5-.5.5-.5-.22-.5-.5.22-.5.5-.5z"/></symbol><symbol viewBox="0 0 8 8" id="icon-target"><title>target</title><path d="M4 0C1.8 0 0 1.8 0 4s1.8 4 4 4 4-1.8 4-4-1.8-4-4-4zm0 1c1.66 0 3 1.34 3 3S5.66 7 4 7 1 5.66 1 4s1.34-3 3-3zm0 1c-1.1 0-2 .9-2 2s.9 2 2 2 2-.9 2-2-.9-2-2-2zm0 1c.56 0 1 .44 1 1s-.44 1-1 1-1-.44-1-1 .44-1 1-1z"/></symbol><symbol viewBox="0 0 8 8" id="icon-task"><title>task</title><path d="M0 0v7h7V3.41l-1 1V6H1V1h3.59l1-1H0zm7 0L4 3 3 2 2 3l2 2 4-4-1-1z"/></symbol><symbol viewBox="0 0 8 8" id="icon-terminal"><title>terminal</title><path d="M.09 0C.03 0 0 .04 0 .09V7.9c0 .05.04.09.09.09H7.9c.05 0 .09-.04.09-.09V.09C7.99.03 7.95 0 7.9 0H.09zM1.5.78L3.22 2.5 1.5 4.22.78 3.5l1-1-1-1L1.5.78zM4 3h3v1H4V3z"/></symbol><symbol viewBox="0 0 8 8" id="icon-text"><title>text</title><path d="M0 0v2h.5c0-.55.45-1 1-1H3v5.5c0 .28-.22.5-.5.5H2v1h4V7h-.5c-.28 0-.5-.22-.5-.5V1h1.5c.55 0 1 .45 1 1H8V0H0z"/></symbol><symbol viewBox="0 0 8 8" id="icon-thumb-down"><title>thumb-down</title><path d="M0 0v4h1V0H0zm2 0v4c.28 0 .53.09.72.28.19.19 1.15 2.12 1.28 2.38.13.26.39.39.66.31.26-.08.4-.36.31-.63-.08-.26-.47-1.59-.47-1.84S4.72 4 5 4h1.5c.28 0 .5-.22.5-.5S5.97.31 5.97.31C5.89.13 5.71 0 5.5 0H2z"/></symbol><symbol viewBox="0 0 8 8" id="icon-thumb-up"><title>thumb-up</title><path d="M4.47 0C4.28.02 4.1.15 4 .34 3.87.6 2.91 2.53 2.72 2.72 2.53 2.91 2.28 3 2 3v4h3.5c.21 0 .39-.13.47-.31C5.97 6.69 7 3.78 7 3.5c0-.28-.22-.5-.5-.5H5c-.28 0-.5-.25-.5-.5S4.89.92 4.97.66C5.05.4 4.92.12 4.66.03 4.59.01 4.54-.01 4.47 0zM0 3v4h1V3H0z"/></symbol><symbol viewBox="0 0 8 8" id="icon-timer"><title>timer</title><path d="M2 0v1h1v.03c-1.7.24-3 1.71-3 3.47C0 6.43 1.57 8 3.5 8S7 6.43 7 4.5c0-.45-.1-.87-.25-1.25l-.91.38c.11.29.16.57.16.88 0 1.39-1.11 2.5-2.5 2.5S1 5.9 1 4.51s1.11-2.5 2.5-2.5c.3 0 .59.05.88.16l.34-.94c-.23-.08-.47-.12-.72-.16v-.06h1v-1H2zm5 1.16s-3.65 2.81-3.84 3c-.19.2-.19.49 0 .69.19.2.49.2.69 0 .2-.2 3.16-3.69 3.16-3.69z"/></symbol><symbol viewBox="0 0 8 8" id="icon-transfer"><title>transfer</title><path d="M6 0v1H0v1h6v1l2-1.5L6 0zM2 4L0 5.5 2 7V6h6V5H2V4z"/></symbol><symbol viewBox="0 0 8 8" id="icon-trash"><title>trash</title><path d="M3 0c-.55 0-1 .45-1 1H1c-.55 0-1 .45-1 1h7c0-.55-.45-1-1-1H5c0-.55-.45-1-1-1H3zM1 3v4.81c0 .11.08.19.19.19h4.63c.11 0 .19-.08.19-.19V3h-1v3.5c0 .28-.22.5-.5.5s-.5-.22-.5-.5V3h-1v3.5c0 .28-.22.5-.5.5s-.5-.22-.5-.5V3h-1z"/></symbol><symbol viewBox="0 0 449.956 449.956" id="icon-twitter"><title>twitter</title><path d="M449.956 85.657c-17.702 7.614-35.408 12.37-53.102 14.28 19.985-11.992 33.503-28.932 40.546-50.82-18.28 10.847-37.787 18.268-58.532 22.267-18.274-19.414-40.73-29.125-67.383-29.125-25.502 0-47.246 8.99-65.24 26.98-17.984 17.98-26.977 39.73-26.977 65.23 0 6.85.76 13.892 2.284 21.13-37.688-1.908-73.042-11.37-106.068-28.41-33.024-17.035-61.05-39.73-84.08-68.09-8.376 14.27-12.564 29.785-12.564 46.534 0 15.798 3.71 30.456 11.136 43.97 7.422 13.512 17.417 24.455 29.98 32.83-14.85-.57-28.743-4.474-41.684-11.707v1.14c0 22.27 6.995 41.825 20.983 58.675C53.245 247.395 70.9 258 92.215 262.38c-7.993 2.09-16.084 3.137-24.267 3.137-5.33 0-11.136-.475-17.416-1.42 5.9 18.46 16.75 33.633 32.546 45.535 15.8 11.896 33.69 18.028 53.677 18.418-33.498 26.262-71.66 39.393-114.486 39.393-8.19 0-15.61-.373-22.27-1.14C42.82 393.9 90.03 407.7 141.61 407.7c32.74 0 63.48-5.18 92.21-15.557 28.747-10.368 53.298-24.266 73.666-41.685 20.362-17.415 37.925-37.448 52.674-60.097 14.75-22.65 25.738-46.29 32.977-70.94 7.23-24.65 10.848-49.342 10.848-74.09 0-5.33-.096-9.325-.287-11.99 18.087-13.13 33.504-29.024 46.258-47.673z"/></symbol><symbol viewBox="0 0 8 8" id="icon-underline"><title>underline</title><path d="M1 0v4c0 1.1 1.12 2 2.5 2H4c1.1 0 2-.9 2-2V0H5v4c0 .55-.45 1-1 1s-1-.45-1-1V0H1zM0 7v1h7V7H0z"/></symbol><symbol viewBox="0 0 8 8" id="icon-vertical-align-bottom"><title>vertical-align-bottom</title><path d="M.09 0C.03 0 0 .04 0 .09V4.9c0 .05.04.09.09.09H1.9c.05 0 .09-.04.09-.09V.09C1.99.03 1.95 0 1.9 0H.09zm6 0C6.04 0 6 .04 6 .09V4.9c0 .05.04.09.09.09H7.9c.05 0 .09-.04.09-.09V.09C7.99.03 7.95 0 7.9 0H6.09zm-3 2c-.06 0-.09.04-.09.09V4.9c0 .05.04.09.09.09H4.9c.05 0 .09-.04.09-.09V2.09c0-.06-.04-.09-.09-.09H3.09zM0 6v1h8V6H0z"/></symbol><symbol viewBox="0 0 8 8" id="icon-vertical-align-center"><title>vertical-align-center</title><path d="M.09 0C.03 0 0 .04 0 .09V2h2V.09C2 .03 1.96 0 1.91 0H.1zm6 0C6.04 0 6 .04 6 .09V2h2V.09C8 .03 7.96 0 7.91 0H6.1zm-3 1c-.06 0-.09.04-.09.09V2h2v-.91C5 1.04 4.96 1 4.91 1H3.1zM0 3v1h8V3H0zm0 2v1.91c0 .05.04.09.09.09H1.9c.05 0 .09-.04.09-.09V5h-2zm3 0v.91c0 .05.04.09.09.09H4.9c.05 0 .09-.04.09-.09V5h-2zm3 0v1.91c0 .05.04.09.09.09H7.9c.05 0 .09-.04.09-.09V5h-2z"/></symbol><symbol viewBox="0 0 8 8" id="icon-vertical-align-top"><title>vertical-align-top</title><path d="M0 0v1h8V0H0zm.09 2C.03 2 0 2.04 0 2.09V6.9c0 .05.04.09.09.09H1.9c.05 0 .09-.04.09-.09V2.09c0-.06-.04-.09-.09-.09H.09zm3 0c-.06 0-.09.04-.09.09V4.9c0 .05.04.09.09.09H4.9c.05 0 .09-.04.09-.09V2.09c0-.06-.04-.09-.09-.09H3.09zm3 0c-.05 0-.09.04-.09.09V6.9c0 .05.04.09.09.09H7.9c.05 0 .09-.04.09-.09V2.09c0-.06-.04-.09-.09-.09H6.09z"/></symbol><symbol viewBox="0 0 8 8" id="icon-video"><title>video</title><path d="M.5 1c-.28 0-.5.23-.5.5v4c0 .28.23.5.5.5h5c.28 0 .5-.22.5-.5V4l1 1h1V2H7L6 3V1.5c0-.28-.22-.5-.5-.5h-5z"/></symbol><symbol viewBox="0 0 8 8" id="icon-volume-high"><title>volume-high</title><path d="M3.34 0L2 2H0v4h2l1.34 2H4V0h-.66zM5 1v1c.17 0 .34.02.5.06.86.22 1.5 1 1.5 1.94s-.63 1.72-1.5 1.94c-.16.04-.33.06-.5.06v1c.25 0 .48-.04.72-.09h.03C7.05 6.58 8 5.4 8 4c0-1.4-.95-2.58-2.25-2.91C5.52 1.03 5.26 1 5 1zm0 2v2c.09 0 .18-.01.25-.03.43-.11.75-.51.75-.97 0-.46-.31-.86-.75-.97C5.17 3.01 5.08 3 5 3z"/></symbol><symbol viewBox="0 0 8 8" id="icon-volume-low"><title>volume-low</title><path d="M4.34 0L3 2H1v4h2l1.34 2H5V0h-.66zM4 3v2c.09 0 .18-.01.25-.03.43-.11.75-.51.75-.97 0-.46-.31-.86-.75-.97.92-.02.83-.03.75-.03z"/></symbol><symbol viewBox="0 0 8 8" id="icon-volume-off"><title>volume-off</title><path d="M5.34 0L4 2H2v4h2l1.34 2H6V0h-.66z"/></symbol><symbol viewBox="0 0 8 8" id="icon-warning"><title>warning</title><path d="M3.09 0c-.06 0-.1.04-.13.09L.02 6.9c-.02.05-.03.13-.03.19v.81c0 .05.04.09.09.09h6.81c.05 0 .09-.04.09-.09v-.81c0-.05-.01-.14-.03-.19L4.01.09C3.99.04 3.94 0 3.88 0h-.81zM3 3h1v2H3V3zm0 3h1v1H3V6z"/></symbol><symbol viewBox="0 0 8 8" id="icon-wifi"><title>wifi</title><path d="M3.75 0C2.37 0 1.09.4 0 1.09l.53.81c.93-.59 2.03-.91 3.22-.91 1.2 0 2.32.31 3.25.91l.53-.81C6.44.39 5.13 0 3.75 0zm0 3c-.79 0-1.5.23-2.13.63l.53.84c.47-.3 1-.47 1.59-.47.59 0 1.16.17 1.63.47l.53-.84C5.28 3.24 4.53 3 3.74 3zm0 3c-.55 0-1 .45-1 1s.45 1 1 1 1-.45 1-1-.45-1-1-1z"/></symbol><symbol viewBox="0 0 8 8" id="icon-wrench"><title>wrench</title><path d="M5.5 0C4.12 0 3 1.12 3 2.5c0 .32.08.62.19.91L.28 6.29c-.39.39-.39 1.05 0 1.44.2.2.46.28.72.28.26 0 .52-.09.72-.28L4.6 4.82c.28.11.58.19.91.19 1.38 0 2.5-1.12 2.5-2.5 0-.16 0-.32-.03-.47l-.97.97h-2v-2l.97-.97C5.83.01 5.67.01 5.51.01zM1 6.5c.28 0 .5.22.5.5s-.22.5-.5.5S.5 7.28.5 7s.22-.5.5-.5z"/></symbol><symbol viewBox="0 0 8 8" id="icon-x"><title>x</title><path d="M1.41 0L0 1.41l.72.72L2.5 3.94.72 5.72 0 6.41l1.41 1.44.72-.72 1.81-1.81 1.78 1.81.69.72 1.44-1.44-.72-.69-1.81-1.78 1.81-1.81.72-.72L6.41 0l-.69.72L3.94 2.5 2.13.72 1.41 0z"/></symbol><symbol viewBox="0 0 8 8" id="icon-yen"><title>yen</title><path d="M0 0l2.25 3H0v1h3v1H0v1h3v2h1V6h3V5H4V4h3V3H4.75L7 0H6L3.69 3h-.38L1 0H0z"/></symbol><symbol viewBox="0 0 511.627 511.627" id="icon-youtube"><title>youtube</title><path d="M459.954 264.376c-2.47-11.233-7.95-20.653-16.416-28.264-8.474-7.61-18.227-12.085-29.27-13.418-35.02-3.806-87.837-5.708-158.457-5.708-70.61 0-123.34 1.903-158.17 5.708-11.222 1.333-21.03 5.807-29.402 13.418-8.375 7.614-13.895 17.035-16.56 28.264-4.95 22.083-7.424 55.39-7.424 99.93 0 45.3 2.475 78.61 7.423 99.93 2.478 11.226 7.95 20.654 16.42 28.262 8.47 7.614 18.226 11.99 29.264 13.134 35.026 3.997 87.847 5.996 158.46 5.996 70.61 0 123.44-2 158.454-5.996 11.044-1.143 20.75-5.52 29.127-13.134 8.378-7.607 13.898-17.036 16.56-28.26 4.95-22.084 7.427-55.392 7.427-99.93 0-45.3-2.48-78.613-7.425-99.932zm-294.93 28.842h-30.548v162.45h-28.55v-162.45h-29.98V266.38h89.08v26.838zm77.086 162.45H216.7v-15.42c-10.278 11.614-19.99 17.418-29.125 17.418-8.754 0-14.275-3.524-16.556-10.564-1.53-4.568-2.29-11.52-2.29-20.844v-111.63h25.41V418.55c0 6.09.09 9.422.29 9.994.57 3.997 2.57 5.995 5.99 5.995 5.14 0 10.566-4 16.274-12V314.62h25.41v141.04zm97.073-42.257c0 13.9-.855 23.42-2.56 28.56-3.244 10.46-9.996 15.7-20.273 15.7-9.137 0-17.986-5.23-26.556-15.693v13.7h-25.406V266.38h25.406v61.956c8.19-10.273 17.036-15.413 26.556-15.413 10.277 0 17.03 5.33 20.273 15.988 1.704 4.95 2.56 14.37 2.56 28.27v56.24zm96.502-23.4H384.58v24.84c0 13.134 4.375 19.697 13.132 19.697 6.28 0 10.09-3.422 11.42-10.28.376-1.902.57-7.706.57-17.412h25.982v3.71c0 9.33-.195 14.847-.572 16.564-.567 5.133-2.56 10.273-5.995 15.413-6.852 10.09-17.14 15.134-30.84 15.134-13.128 0-23.408-4.854-30.834-14.557-5.517-7.045-8.275-18.085-8.275-33.12v-49.4c0-15.037 2.662-26.077 7.987-33.12 7.427-9.705 17.61-14.558 30.557-14.558 12.755 0 22.85 4.852 30.263 14.557 5.146 7.04 7.71 18.08 7.71 33.12v29.41zm-133.05-53.96c-4.38 0-8.66 2.1-12.848 6.28v85.936c4.188 4.187 8.467 6.28 12.847 6.28 7.42 0 11.14-6.372 11.14-19.13V355.18c0-12.756-3.713-19.13-11.14-19.13zm94.793 0c-8.565 0-12.847 6.475-12.847 19.41v13.134h25.7V355.46c0-12.943-4.282-19.41-12.844-19.41zM148.473 113.92v77.375h28.55V113.92L211.563 0h-29.12l-19.41 75.09L142.757 0h-30.263c5.33 15.99 11.516 33.785 18.56 53.39 8.946 26.266 14.748 46.445 17.416 60.527zm101.347 79.37c13.134 0 23.22-4.853 30.262-14.56 5.332-7.043 7.994-18.274 7.994-33.69V95.076c0-15.225-2.67-26.363-7.994-33.406-7.043-9.708-17.128-14.562-30.262-14.562-12.756 0-22.75 4.854-29.98 14.56-5.327 7.044-7.992 18.182-7.992 33.407v49.965c0 15.225 2.662 26.457 7.992 33.69 7.233 9.707 17.223 14.56 29.98 14.56zM237.54 89.936c0-13.134 4.094-19.7 12.28-19.7s12.275 6.566 12.275 19.7v59.955c0 13.33-4.09 19.99-12.275 19.99s-12.28-6.66-12.28-19.982v-59.96zm90.788 103.354c9.523 0 19.328-5.9 29.413-17.704v15.703h25.99V48.82h-25.98V157.6c-5.713 8.185-11.134 12.274-16.28 12.274-3.43 0-5.43-2.093-5.996-6.28-.19-.38-.287-3.715-.287-9.994V48.822H309.2v112.492c0 9.705.766 16.84 2.285 21.41 2.477 7.044 8.09 10.567 16.844 10.567z"/></symbol><symbol viewBox="0 0 8 8" id="icon-zoom-in"><title>zoom-in</title><path d="M3.5 0C1.57 0 0 1.57 0 3.5S1.57 7 3.5 7c.61 0 1.19-.16 1.69-.44a1 1 0 0 0 .09.13l1 1.03a1.02 1.02 0 1 0 1.44-1.44l-1.03-1a1 1 0 0 0-.13-.09c.27-.5.44-1.08.44-1.69C7 1.57 5.43 0 3.5 0zm0 1C4.89 1 6 2.11 6 3.5c0 .59-.2 1.14-.53 1.56l-.03.03a1 1 0 0 0-.06.03 1 1 0 0 0-.25.28c-.44.37-1.01.59-1.63.59-1.39 0-2.5-1.11-2.5-2.5S2.11.99 3.5.99zM3 2v1H2v1h1v1h1V4h1V3H4V2H3z"/></symbol><symbol viewBox="0 0 8 8" id="icon-zoom-out"><title>zoom-out</title><path d="M3.5 0C1.57 0 0 1.57 0 3.5S1.57 7 3.5 7c.61 0 1.19-.16 1.69-.44a1 1 0 0 0 .09.13l1 1.03a1.02 1.02 0 1 0 1.44-1.44l-1.03-1a1 1 0 0 0-.13-.09c.27-.5.44-1.08.44-1.69C7 1.57 5.43 0 3.5 0zm0 1C4.89 1 6 2.11 6 3.5c0 .59-.2 1.14-.53 1.56l-.03.03a1 1 0 0 0-.06.03 1 1 0 0 0-.25.28c-.44.37-1.01.59-1.63.59-1.39 0-2.5-1.11-2.5-2.5S2.11.99 3.5.99zM2 3v1h3V3H2z"/></symbol></svg>